%FSLAX25Y25*%
%MOIN*%
G70*
G01*
G75*
G04 Layer_Physical_Order=1*
G04 Layer_Color=255*
%ADD10C,0.01575*%
%ADD11C,0.03150*%
%ADD12O,0.04213X0.07874*%
%ADD13R,0.04213X0.07874*%
%ADD14C,0.03937*%
G36*
X313976Y79724D02*
X119095D01*
Y274606D01*
X313976D01*
Y79724D01*
D02*
G37*
%LPC*%
G36*
X141732Y243921D02*
X141013Y243827D01*
X140342Y243549D01*
X139767Y243107D01*
X139325Y242532D01*
X139047Y241861D01*
X138953Y241142D01*
X139047Y240422D01*
X139325Y239752D01*
X139767Y239176D01*
X140342Y238735D01*
X141010Y238458D01*
X144737Y234731D01*
Y190855D01*
X144461Y190188D01*
X144366Y189469D01*
X144461Y188749D01*
X144737Y188082D01*
Y151588D01*
X141994Y148845D01*
X141327Y148569D01*
X140751Y148127D01*
X140309Y147551D01*
X140032Y146881D01*
X139937Y146161D01*
X140032Y145442D01*
X140309Y144772D01*
X140751Y144196D01*
X141327Y143754D01*
X141997Y143476D01*
X142717Y143382D01*
X143436Y143476D01*
X144106Y143754D01*
X144682Y144196D01*
X145124Y144772D01*
X145400Y145439D01*
X148849Y148888D01*
X149162Y149356D01*
X149371Y149669D01*
X149554Y150591D01*
Y187060D01*
X171841D01*
X172509Y186784D01*
X173228Y186689D01*
X173948Y186784D01*
X174618Y187061D01*
X175194Y187503D01*
X175636Y188079D01*
X175913Y188749D01*
X176008Y189469D01*
X175913Y190188D01*
X175636Y190858D01*
X175194Y191434D01*
X174618Y191876D01*
X173948Y192154D01*
X173228Y192248D01*
X172509Y192154D01*
X171841Y191877D01*
X149554D01*
Y235728D01*
X149371Y236650D01*
X148849Y237431D01*
X144416Y241864D01*
X144140Y242532D01*
X143698Y243107D01*
X143122Y243549D01*
X142452Y243827D01*
X141732Y243921D01*
D02*
G37*
G36*
X243721Y267545D02*
X242965Y267445D01*
X242261Y267154D01*
X241657Y266690D01*
X241471Y266447D01*
X240970D01*
X240784Y266690D01*
X240180Y267154D01*
X239476Y267445D01*
X238720Y267545D01*
X237965Y267445D01*
X237261Y267154D01*
X237063Y267001D01*
X236614Y267222D01*
Y267520D01*
X230827D01*
Y267222D01*
X230378Y267001D01*
X230180Y267154D01*
X229476Y267445D01*
X228720Y267545D01*
X227965Y267445D01*
X227261Y267154D01*
X226657Y266690D01*
X226193Y266085D01*
X225901Y265381D01*
X225802Y264626D01*
Y260965D01*
X225901Y260209D01*
X226193Y259505D01*
X226657Y258901D01*
X227261Y258437D01*
X227965Y258145D01*
X228720Y258046D01*
X229476Y258145D01*
X230180Y258437D01*
X230378Y258589D01*
X230827Y258368D01*
Y258071D01*
X232181D01*
X232217Y257893D01*
X232237Y257791D01*
X232585Y257270D01*
X232585Y257270D01*
X232585Y257270D01*
X241975Y247880D01*
X241975D01*
X241975Y247880D01*
X241975Y247880D01*
Y247880D01*
X242496Y247532D01*
X242598Y247512D01*
X243110Y247410D01*
X243110Y247410D01*
X250363D01*
Y242025D01*
X249889Y241864D01*
X249721Y242084D01*
X249117Y242547D01*
X248413Y242839D01*
X247657Y242938D01*
X246902Y242839D01*
X246198Y242547D01*
X245594Y242084D01*
X245408Y241841D01*
X244907D01*
X244721Y242084D01*
X244117Y242547D01*
X243413Y242839D01*
X242657Y242938D01*
X241902Y242839D01*
X241198Y242547D01*
X241000Y242395D01*
X240551Y242616D01*
Y242913D01*
X234764D01*
Y242616D01*
X234315Y242395D01*
X234117Y242547D01*
X233413Y242839D01*
X232658Y242938D01*
X231902Y242839D01*
X231198Y242547D01*
X230594Y242084D01*
X230130Y241479D01*
X229838Y240775D01*
X229739Y240020D01*
Y236358D01*
X229838Y235603D01*
X230130Y234899D01*
X230594Y234295D01*
X231198Y233831D01*
X231902Y233539D01*
X232658Y233440D01*
X233413Y233539D01*
X234117Y233831D01*
X234315Y233983D01*
X234764Y233762D01*
Y233465D01*
X240551D01*
Y233762D01*
X241000Y233983D01*
X241198Y233831D01*
X241902Y233539D01*
X242657Y233440D01*
X243413Y233539D01*
X244117Y233831D01*
X244721Y234295D01*
X244907Y234537D01*
X245408D01*
X245594Y234295D01*
X246198Y233831D01*
X246902Y233539D01*
X247657Y233440D01*
X248413Y233539D01*
X249117Y233831D01*
X249721Y234295D01*
X249889Y234513D01*
X250363Y234353D01*
Y229012D01*
X240459Y219108D01*
X240111Y218587D01*
X240091Y218485D01*
X240055Y218307D01*
X238701D01*
Y218010D01*
X238252Y217789D01*
X238054Y217941D01*
X237350Y218233D01*
X236595Y218332D01*
X235839Y218233D01*
X235135Y217941D01*
X234531Y217477D01*
X234067Y216873D01*
X233775Y216169D01*
X233676Y215413D01*
Y211752D01*
X233775Y210997D01*
X234067Y210293D01*
X234531Y209688D01*
X235135Y209224D01*
X235839Y208933D01*
X236595Y208833D01*
X237350Y208933D01*
X238054Y209224D01*
X238252Y209377D01*
X238701Y209156D01*
Y208858D01*
X239989D01*
Y199445D01*
X235085Y194541D01*
X234737Y194020D01*
X234717Y193918D01*
X234615Y193405D01*
X234615Y193405D01*
Y183524D01*
X234615Y183524D01*
X234717Y183011D01*
X234737Y182909D01*
X235085Y182388D01*
X235085Y182388D01*
X235085Y182388D01*
X235085Y182388D01*
Y182388D01*
X245130Y172343D01*
X244939Y171881D01*
X240158D01*
X239543Y171759D01*
X239022Y171411D01*
X239022Y171411D01*
X225695Y158084D01*
X225347Y157563D01*
X225327Y157461D01*
X225292Y157283D01*
X223937D01*
Y156986D01*
X223489Y156765D01*
X223290Y156917D01*
X222586Y157209D01*
X221831Y157308D01*
X221075Y157209D01*
X220371Y156917D01*
X219767Y156454D01*
X219303Y155849D01*
X219011Y155145D01*
X218912Y154390D01*
Y150728D01*
X219011Y149973D01*
X219303Y149269D01*
X219767Y148664D01*
X220371Y148201D01*
X221075Y147909D01*
X221831Y147810D01*
X222586Y147909D01*
X223290Y148201D01*
X223489Y148353D01*
X223937Y148132D01*
Y147835D01*
X229724D01*
Y148132D01*
X230173Y148353D01*
X230371Y148201D01*
X231075Y147909D01*
X231831Y147810D01*
X232586Y147909D01*
X233290Y148201D01*
X233894Y148664D01*
X234081Y148907D01*
X234581D01*
X234767Y148664D01*
X235371Y148201D01*
X236075Y147909D01*
X236831Y147810D01*
X237586Y147909D01*
X238290Y148201D01*
X238895Y148664D01*
X239358Y149269D01*
X239650Y149973D01*
X239749Y150728D01*
Y154390D01*
X239650Y155145D01*
X239358Y155849D01*
X238895Y156454D01*
X238290Y156917D01*
X237586Y157209D01*
X236831Y157308D01*
X236075Y157209D01*
X235371Y156917D01*
X234767Y156454D01*
X234581Y156211D01*
X234081D01*
X233894Y156454D01*
X233290Y156917D01*
X232586Y157209D01*
X231831Y157308D01*
X231075Y157209D01*
X230371Y156917D01*
X230173Y156765D01*
X229724Y156986D01*
Y157283D01*
X229724Y157283D01*
X229724D01*
X229640Y157487D01*
X240823Y168670D01*
X242150D01*
X242372Y168221D01*
X241941Y167660D01*
X241649Y166956D01*
X241550Y166201D01*
Y162539D01*
X241649Y161784D01*
X241941Y161080D01*
X242405Y160476D01*
X243009Y160012D01*
X243713Y159720D01*
X244468Y159621D01*
X245224Y159720D01*
X245928Y160012D01*
X246126Y160164D01*
X246575Y159943D01*
Y159646D01*
X247863D01*
Y149740D01*
X242959Y144836D01*
X242611Y144315D01*
X242591Y144213D01*
X242489Y143701D01*
X242489Y143701D01*
Y135335D01*
X242489Y135335D01*
X242591Y134822D01*
X242611Y134720D01*
X242959Y134199D01*
X242959Y134199D01*
X242959Y134199D01*
X255737Y121422D01*
Y119882D01*
X254449D01*
Y119585D01*
X254000Y119363D01*
X253802Y119516D01*
X253098Y119807D01*
X252343Y119907D01*
X251587Y119807D01*
X250883Y119516D01*
X250279Y119052D01*
X249815Y118447D01*
X249523Y117744D01*
X249424Y116988D01*
Y113327D01*
X249523Y112571D01*
X249815Y111867D01*
X250279Y111263D01*
X250883Y110799D01*
X251587Y110508D01*
X252343Y110408D01*
X253098Y110508D01*
X253802Y110799D01*
X254000Y110951D01*
X254449Y110730D01*
Y110433D01*
X254655D01*
X254846Y109971D01*
X246382Y101507D01*
X218996D01*
X218996Y101507D01*
X218484Y101405D01*
X218382Y101385D01*
X217861Y101037D01*
X214035Y97212D01*
X213163Y98084D01*
X212642Y98432D01*
X212540Y98453D01*
X212028Y98554D01*
X212028Y98554D01*
X202085D01*
X201925Y99028D01*
X202477Y99452D01*
X202941Y100056D01*
X203233Y100760D01*
X203332Y101516D01*
Y105177D01*
X203233Y105933D01*
X202941Y106637D01*
X202510Y107198D01*
X202731Y107646D01*
X211614D01*
X211614Y107646D01*
X212127Y107748D01*
X212229Y107768D01*
X212750Y108117D01*
X212750Y108117D01*
X212750Y108117D01*
X221076Y116443D01*
X221424Y116964D01*
X221547Y117579D01*
X221547Y117579D01*
X221547Y117579D01*
Y117579D01*
Y118307D01*
X222835D01*
Y118604D01*
X223283Y118825D01*
X223482Y118673D01*
X224185Y118382D01*
X224941Y118282D01*
X225696Y118382D01*
X226400Y118673D01*
X227005Y119137D01*
X227191Y119380D01*
X227691D01*
X227877Y119137D01*
X228482Y118673D01*
X229186Y118382D01*
X229941Y118282D01*
X230696Y118382D01*
X231400Y118673D01*
X232005Y119137D01*
X232469Y119741D01*
X232760Y120445D01*
X232860Y121201D01*
Y124862D01*
X232760Y125618D01*
X232469Y126321D01*
X232005Y126926D01*
X231400Y127390D01*
X230696Y127681D01*
X229941Y127781D01*
X229186Y127681D01*
X228482Y127390D01*
X227877Y126926D01*
X227691Y126683D01*
X227191D01*
X227005Y126926D01*
X226400Y127390D01*
X225696Y127681D01*
X224941Y127781D01*
X224185Y127681D01*
X223482Y127390D01*
X223283Y127237D01*
X222835Y127459D01*
Y127756D01*
X222728D01*
X221547Y127992D01*
X221445Y128505D01*
X221424Y128607D01*
X221076Y129128D01*
X221076Y129128D01*
X218141Y132063D01*
Y154528D01*
X218019Y155142D01*
X217671Y155663D01*
X217671Y155663D01*
X213734Y159600D01*
X213213Y159948D01*
X213111Y159968D01*
X212598Y160070D01*
X212598Y160070D01*
X203740D01*
X203126Y159948D01*
X202605Y159600D01*
X202605Y159600D01*
X200105Y157100D01*
X199757Y156579D01*
X199736Y156477D01*
X199701Y156299D01*
X198346D01*
Y156002D01*
X197898Y155781D01*
X197699Y155933D01*
X196996Y156225D01*
X196240Y156324D01*
X195485Y156225D01*
X194781Y155933D01*
X194176Y155469D01*
X193712Y154865D01*
X193421Y154161D01*
X193322Y153405D01*
Y149744D01*
X193421Y148989D01*
X193712Y148285D01*
X194176Y147680D01*
X194781Y147216D01*
X195485Y146925D01*
X196240Y146825D01*
X196996Y146925D01*
X197699Y147216D01*
X197898Y147369D01*
X198346Y147148D01*
Y146850D01*
X204134D01*
Y147148D01*
X204582Y147369D01*
X204781Y147216D01*
X205485Y146925D01*
X206240Y146825D01*
X206996Y146925D01*
X207699Y147216D01*
X208304Y147680D01*
X208490Y147923D01*
X208990D01*
X209176Y147680D01*
X209781Y147216D01*
X210485Y146925D01*
X211240Y146825D01*
X211996Y146925D01*
X212700Y147216D01*
X213304Y147680D01*
X213768Y148285D01*
X214059Y148989D01*
X214159Y149744D01*
Y153405D01*
X214074Y154049D01*
X214523Y154270D01*
X214930Y153863D01*
Y131398D01*
X214930Y131398D01*
X215032Y130885D01*
X215052Y130783D01*
X215400Y130262D01*
X215400Y130262D01*
X215400Y130262D01*
X215400Y130262D01*
Y130262D01*
X217444Y128218D01*
X217253Y127756D01*
X217047D01*
Y127459D01*
X216599Y127237D01*
X216400Y127390D01*
X215696Y127681D01*
X214941Y127781D01*
X214186Y127681D01*
X213482Y127390D01*
X212877Y126926D01*
X212413Y126321D01*
X212122Y125618D01*
X212022Y124862D01*
Y121201D01*
X212122Y120445D01*
X212413Y119741D01*
X212877Y119137D01*
X213482Y118673D01*
X214186Y118382D01*
X214941Y118282D01*
X215696Y118382D01*
X216400Y118673D01*
X216599Y118825D01*
X217047Y118604D01*
Y118307D01*
X217745D01*
X217937Y117845D01*
X210949Y110858D01*
X192913D01*
X192299Y110735D01*
X191778Y110387D01*
X191778Y110387D01*
X189462Y108071D01*
X187520D01*
Y107774D01*
X187071Y107553D01*
X186873Y107705D01*
X186169Y107996D01*
X185413Y108096D01*
X184658Y107996D01*
X183954Y107705D01*
X183350Y107241D01*
X182886Y106637D01*
X182594Y105933D01*
X182495Y105177D01*
Y101516D01*
X182594Y100760D01*
X182856Y100128D01*
X182440Y99850D01*
X181724Y100567D01*
Y110555D01*
X187612Y116443D01*
X187612Y116443D01*
X187960Y116964D01*
X188082Y117579D01*
Y124213D01*
X189370D01*
Y124510D01*
X189819Y124731D01*
X190017Y124579D01*
X190721Y124287D01*
X191476Y124188D01*
X192232Y124287D01*
X192936Y124579D01*
X193540Y125042D01*
X193726Y125285D01*
X194226D01*
X194413Y125042D01*
X195017Y124579D01*
X195721Y124287D01*
X196476Y124188D01*
X197232Y124287D01*
X197936Y124579D01*
X198540Y125042D01*
X199004Y125647D01*
X199296Y126351D01*
X199395Y127106D01*
Y130768D01*
X199296Y131523D01*
X199004Y132227D01*
X198540Y132832D01*
X197936Y133295D01*
X197232Y133587D01*
X196476Y133686D01*
X195721Y133587D01*
X195017Y133295D01*
X194413Y132832D01*
X194226Y132589D01*
X193726D01*
X193540Y132832D01*
X192936Y133295D01*
X192232Y133587D01*
X191476Y133686D01*
X190721Y133587D01*
X190017Y133295D01*
X189819Y133143D01*
X189370Y133364D01*
Y133661D01*
X183583D01*
Y133364D01*
X183134Y133143D01*
X182936Y133295D01*
X182232Y133587D01*
X181476Y133686D01*
X180721Y133587D01*
X180017Y133295D01*
X179413Y132832D01*
X178949Y132227D01*
X178657Y131523D01*
X178558Y130768D01*
Y127106D01*
X178657Y126351D01*
X178949Y125647D01*
X179413Y125042D01*
X180017Y124579D01*
X180721Y124287D01*
X181476Y124188D01*
X182232Y124287D01*
X182936Y124579D01*
X183134Y124731D01*
X183583Y124510D01*
Y124213D01*
X184871D01*
Y118244D01*
X178983Y112356D01*
X178635Y111835D01*
X178614Y111733D01*
X178512Y111221D01*
X178512Y111220D01*
Y99902D01*
X178512Y99902D01*
X178614Y99389D01*
X178635Y99287D01*
X178983Y98766D01*
X178983Y98766D01*
X178983Y98766D01*
D01*
X178983D01*
Y98766D01*
D01*
X181936Y95814D01*
X181936Y95814D01*
X182456Y95465D01*
X182456Y95465D01*
X182456Y95465D01*
D01*
X182456Y95465D01*
X182456Y95465D01*
X183071Y95343D01*
X207364D01*
X207524Y94870D01*
X206972Y94446D01*
X206508Y93841D01*
X206216Y93137D01*
X206117Y92382D01*
Y88721D01*
X206216Y87965D01*
X206508Y87261D01*
X206972Y86657D01*
X207576Y86193D01*
X208280Y85901D01*
X209035Y85802D01*
X209791Y85901D01*
X210495Y86193D01*
X210693Y86345D01*
X211142Y86124D01*
Y85827D01*
X216929D01*
Y86124D01*
X217378Y86345D01*
X217576Y86193D01*
X218280Y85901D01*
X219035Y85802D01*
X219791Y85901D01*
X220495Y86193D01*
X221099Y86657D01*
X221285Y86899D01*
X221785D01*
X221972Y86657D01*
X222576Y86193D01*
X223280Y85901D01*
X224035Y85802D01*
X224791Y85901D01*
X225495Y86193D01*
X226099Y86657D01*
X226563Y87261D01*
X226855Y87965D01*
X226954Y88721D01*
Y92382D01*
X226855Y93137D01*
X226563Y93841D01*
X226099Y94446D01*
X225495Y94910D01*
X224791Y95201D01*
X224035Y95301D01*
X223280Y95201D01*
X222576Y94910D01*
X221972Y94446D01*
X221785Y94203D01*
X221285D01*
X221099Y94446D01*
X220495Y94910D01*
X219791Y95201D01*
X219035Y95301D01*
X218280Y95201D01*
X217576Y94910D01*
X217378Y94757D01*
X216929Y94978D01*
Y95276D01*
X216929Y95276D01*
X216929D01*
X216845Y95480D01*
X219661Y98296D01*
X232954D01*
X233115Y97822D01*
X232562Y97399D01*
X232098Y96794D01*
X231807Y96090D01*
X231707Y95335D01*
Y91673D01*
X231807Y90918D01*
X232098Y90214D01*
X232562Y89609D01*
X233167Y89146D01*
X233871Y88854D01*
X234626Y88755D01*
X235381Y88854D01*
X236085Y89146D01*
X236284Y89298D01*
X236732Y89077D01*
Y88779D01*
X242520D01*
Y89077D01*
X242968Y89298D01*
X243167Y89146D01*
X243871Y88854D01*
X244626Y88755D01*
X245381Y88854D01*
X246085Y89146D01*
X246690Y89609D01*
X246876Y89852D01*
X247376D01*
X247562Y89609D01*
X248167Y89146D01*
X248871Y88854D01*
X249626Y88755D01*
X250381Y88854D01*
X251085Y89146D01*
X251690Y89609D01*
X252154Y90214D01*
X252445Y90918D01*
X252545Y91673D01*
Y95335D01*
X252445Y96090D01*
X252154Y96794D01*
X251690Y97399D01*
X251085Y97862D01*
X250381Y98154D01*
X249626Y98253D01*
X248871Y98154D01*
X248167Y97862D01*
X247562Y97399D01*
X247376Y97156D01*
X246876D01*
X246690Y97399D01*
X246137Y97822D01*
X246298Y98296D01*
X247047D01*
X247047Y98296D01*
X247560Y98398D01*
X247662Y98418D01*
X248183Y98766D01*
X258478Y109062D01*
X258826Y109582D01*
X258846Y109684D01*
X258948Y110197D01*
X260129Y110433D01*
X260236D01*
Y110730D01*
X260685Y110951D01*
X260883Y110799D01*
X261587Y110508D01*
X262343Y110408D01*
X263098Y110508D01*
X263802Y110799D01*
X264406Y111263D01*
X264593Y111506D01*
X265092D01*
X265279Y111263D01*
X265883Y110799D01*
X266587Y110508D01*
X267342Y110408D01*
X268098Y110508D01*
X268802Y110799D01*
X269406Y111263D01*
X269870Y111867D01*
X270162Y112571D01*
X270261Y113327D01*
Y116988D01*
X270162Y117744D01*
X269870Y118447D01*
X269406Y119052D01*
X268802Y119516D01*
X268098Y119807D01*
X267342Y119907D01*
X266587Y119807D01*
X265883Y119516D01*
X265279Y119052D01*
X265092Y118809D01*
X264593D01*
X264406Y119052D01*
X263802Y119516D01*
X263098Y119807D01*
X262343Y119907D01*
X261587Y119807D01*
X260883Y119516D01*
X260685Y119363D01*
X260236Y119585D01*
Y119882D01*
X258948D01*
Y122087D01*
X258948Y122087D01*
X258846Y122599D01*
X258826Y122701D01*
X258478Y123222D01*
X246740Y134960D01*
X247018Y135376D01*
X247650Y135114D01*
X248406Y135014D01*
X249161Y135114D01*
X249865Y135405D01*
X250063Y135558D01*
X250512Y135337D01*
Y135039D01*
X256299D01*
Y135337D01*
X256748Y135558D01*
X256946Y135405D01*
X257650Y135114D01*
X258405Y135014D01*
X259161Y135114D01*
X259865Y135405D01*
X260469Y135869D01*
X260655Y136112D01*
X261156D01*
X261342Y135869D01*
X261946Y135405D01*
X262650Y135114D01*
X263405Y135014D01*
X264161Y135114D01*
X264865Y135405D01*
X265469Y135869D01*
X265933Y136474D01*
X266225Y137178D01*
X266324Y137933D01*
Y141595D01*
X266225Y142350D01*
X265933Y143054D01*
X265469Y143658D01*
X264865Y144122D01*
X264161Y144414D01*
X263405Y144513D01*
X262650Y144414D01*
X261946Y144122D01*
X261342Y143658D01*
X261156Y143416D01*
X260655D01*
X260469Y143658D01*
X259865Y144122D01*
X259161Y144414D01*
X258405Y144513D01*
X257650Y144414D01*
X256946Y144122D01*
X256748Y143970D01*
X256299Y144191D01*
Y144488D01*
X250512D01*
Y144191D01*
X250063Y143970D01*
X249865Y144122D01*
X249161Y144414D01*
X248406Y144513D01*
X247762Y144429D01*
X247541Y144877D01*
X250604Y147939D01*
X250604Y147939D01*
X250952Y148460D01*
X250972Y148562D01*
X251074Y149075D01*
X251074Y149075D01*
Y159646D01*
X252362D01*
Y159943D01*
X252811Y160164D01*
X253009Y160012D01*
X253713Y159720D01*
X254468Y159621D01*
X255224Y159720D01*
X255928Y160012D01*
X256532Y160476D01*
X256718Y160718D01*
X257219D01*
X257405Y160476D01*
X258009Y160012D01*
X258713Y159720D01*
X259469Y159621D01*
X260224Y159720D01*
X260928Y160012D01*
X261532Y160476D01*
X261996Y161080D01*
X262288Y161784D01*
X262387Y162539D01*
Y166201D01*
X262288Y166956D01*
X261996Y167660D01*
X261532Y168265D01*
X260928Y168728D01*
X260224Y169020D01*
X259469Y169120D01*
X258713Y169020D01*
X258009Y168728D01*
X257405Y168265D01*
X257219Y168022D01*
X256718D01*
X256532Y168265D01*
X255928Y168728D01*
X255224Y169020D01*
X254468Y169120D01*
X253713Y169020D01*
X253009Y168728D01*
X252811Y168576D01*
X252362Y168797D01*
Y169095D01*
X251074D01*
Y170276D01*
X250952Y170890D01*
X250604Y171411D01*
X250604Y171411D01*
X237826Y184189D01*
Y185140D01*
X238300Y185301D01*
X238468Y185082D01*
X239072Y184618D01*
X239776Y184326D01*
X240531Y184227D01*
X241287Y184326D01*
X241991Y184618D01*
X242189Y184770D01*
X242638Y184549D01*
Y184252D01*
X248425D01*
Y184549D01*
X248874Y184770D01*
X249072Y184618D01*
X249776Y184326D01*
X250532Y184227D01*
X251287Y184326D01*
X251991Y184618D01*
X252595Y185082D01*
X252782Y185325D01*
X253281D01*
X253468Y185082D01*
X254072Y184618D01*
X254776Y184326D01*
X255532Y184227D01*
X256287Y184326D01*
X256991Y184618D01*
X257595Y185082D01*
X258059Y185686D01*
X258351Y186390D01*
X258450Y187146D01*
Y190807D01*
X258351Y191562D01*
X258059Y192266D01*
X257595Y192871D01*
X256991Y193335D01*
X256287Y193626D01*
X255532Y193726D01*
X254776Y193626D01*
X254072Y193335D01*
X253468Y192871D01*
X253281Y192628D01*
X252782D01*
X252595Y192871D01*
X251991Y193335D01*
X251287Y193626D01*
X250532Y193726D01*
X249776Y193626D01*
X249072Y193335D01*
X248874Y193182D01*
X248425Y193403D01*
Y193701D01*
X242638D01*
Y193403D01*
X242189Y193182D01*
X241991Y193335D01*
X241287Y193626D01*
X240531Y193726D01*
X239776Y193626D01*
X239143Y193364D01*
X238866Y193780D01*
X242730Y197644D01*
X242730Y197644D01*
X243078Y198165D01*
X243098Y198267D01*
X243200Y198779D01*
X243200Y198780D01*
Y208858D01*
X244488D01*
Y209156D01*
X244937Y209377D01*
X245135Y209224D01*
X245839Y208933D01*
X246595Y208833D01*
X247350Y208933D01*
X248054Y209224D01*
X248658Y209688D01*
X248845Y209931D01*
X249344D01*
X249531Y209688D01*
X250135Y209224D01*
X250839Y208933D01*
X251594Y208833D01*
X252350Y208933D01*
X253054Y209224D01*
X253658Y209688D01*
X254122Y210293D01*
X254414Y210997D01*
X254513Y211752D01*
Y215413D01*
X254414Y216169D01*
X254122Y216873D01*
X253658Y217477D01*
X253054Y217941D01*
X252350Y218233D01*
X251594Y218332D01*
X250839Y218233D01*
X250135Y217941D01*
X249531Y217477D01*
X249344Y217234D01*
X248845D01*
X248658Y217477D01*
X248054Y217941D01*
X247350Y218233D01*
X246595Y218332D01*
X245839Y218233D01*
X245135Y217941D01*
X244937Y217789D01*
X244488Y218010D01*
Y218307D01*
X244488Y218307D01*
X244488D01*
X244404Y218511D01*
X253104Y227211D01*
X253104Y227211D01*
X253104Y227211D01*
X253452Y227732D01*
X253472Y227834D01*
X253574Y228346D01*
X253574Y228346D01*
Y247410D01*
X280512D01*
X280512Y247410D01*
X281024Y247512D01*
X281126Y247532D01*
X281647Y247880D01*
X283964Y250197D01*
X285827D01*
Y250494D01*
X286275Y250715D01*
X286474Y250563D01*
X287178Y250271D01*
X287933Y250172D01*
X288688Y250271D01*
X289392Y250563D01*
X289997Y251027D01*
X290183Y251269D01*
X290683D01*
X290869Y251027D01*
X291474Y250563D01*
X292178Y250271D01*
X292933Y250172D01*
X293689Y250271D01*
X294392Y250563D01*
X294997Y251027D01*
X295461Y251631D01*
X295752Y252335D01*
X295852Y253091D01*
Y256752D01*
X295752Y257507D01*
X295461Y258211D01*
X294997Y258816D01*
X294392Y259280D01*
X293689Y259571D01*
X292933Y259671D01*
X292178Y259571D01*
X291474Y259280D01*
X290869Y258816D01*
X290683Y258573D01*
X290183D01*
X289997Y258816D01*
X289392Y259280D01*
X288688Y259571D01*
X287933Y259671D01*
X287178Y259571D01*
X286474Y259280D01*
X286275Y259127D01*
X285827Y259348D01*
Y259646D01*
X280039D01*
Y259348D01*
X279591Y259127D01*
X279392Y259280D01*
X278689Y259571D01*
X277933Y259671D01*
X277178Y259571D01*
X276474Y259280D01*
X275869Y258816D01*
X275405Y258211D01*
X275114Y257507D01*
X275014Y256752D01*
Y253091D01*
X275114Y252335D01*
X275405Y251631D01*
X275836Y251070D01*
X275615Y250621D01*
X243775D01*
X236530Y257867D01*
X236614Y258071D01*
X236614D01*
X236614Y258071D01*
Y258368D01*
X237063Y258589D01*
X237261Y258437D01*
X237965Y258145D01*
X238720Y258046D01*
X239476Y258145D01*
X240180Y258437D01*
X240784Y258901D01*
X240970Y259143D01*
X241471D01*
X241657Y258901D01*
X242261Y258437D01*
X242965Y258145D01*
X243721Y258046D01*
X244476Y258145D01*
X245180Y258437D01*
X245784Y258901D01*
X246248Y259505D01*
X246540Y260209D01*
X246639Y260965D01*
Y264626D01*
X246540Y265381D01*
X246248Y266085D01*
X245784Y266690D01*
X245180Y267154D01*
X244476Y267445D01*
X243721Y267545D01*
D02*
G37*
G36*
X268327Y263608D02*
X267571Y263508D01*
X266867Y263217D01*
X266263Y262753D01*
X266077Y262510D01*
X265577D01*
X265391Y262753D01*
X264786Y263217D01*
X264082Y263508D01*
X263327Y263608D01*
X262571Y263508D01*
X261867Y263217D01*
X261669Y263064D01*
X261221Y263285D01*
Y263583D01*
X255433D01*
Y263285D01*
X254985Y263064D01*
X254786Y263217D01*
X254082Y263508D01*
X253327Y263608D01*
X252571Y263508D01*
X251867Y263217D01*
X251263Y262753D01*
X250799Y262148D01*
X250507Y261444D01*
X250408Y260689D01*
Y257028D01*
X250507Y256272D01*
X250799Y255568D01*
X251263Y254964D01*
X251867Y254500D01*
X252571Y254208D01*
X253327Y254109D01*
X254082Y254208D01*
X254786Y254500D01*
X254985Y254652D01*
X255433Y254431D01*
Y254134D01*
X261221D01*
Y254431D01*
X261669Y254652D01*
X261867Y254500D01*
X262571Y254208D01*
X263327Y254109D01*
X264082Y254208D01*
X264786Y254500D01*
X265391Y254964D01*
X265577Y255206D01*
X266077D01*
X266263Y254964D01*
X266867Y254500D01*
X267571Y254208D01*
X268327Y254109D01*
X269082Y254208D01*
X269786Y254500D01*
X270391Y254964D01*
X270854Y255568D01*
X271146Y256272D01*
X271245Y257028D01*
Y260689D01*
X271146Y261444D01*
X270854Y262148D01*
X270391Y262753D01*
X269786Y263217D01*
X269082Y263508D01*
X268327Y263608D01*
D02*
G37*
%LPD*%
D10*
X251969Y228346D02*
Y249016D01*
X243110D02*
X251969D01*
X233720Y258405D02*
X243110Y249016D01*
X280512D02*
X282933Y251437D01*
X251969Y249016D02*
X280512D01*
X219941Y123031D02*
Y127992D01*
X216535Y131398D02*
X219941Y127992D01*
X216535Y131398D02*
Y154528D01*
X183071Y96949D02*
X212028D01*
X180118Y99902D02*
X183071Y96949D01*
X180118Y99902D02*
Y111221D01*
X212028Y96949D02*
X214035Y94941D01*
X218996Y99902D02*
X247047D01*
X214035Y94941D02*
X218996Y99902D01*
X214035Y90551D02*
Y94941D01*
X247047Y99902D02*
X257343Y110197D01*
Y115157D02*
Y122087D01*
X244094Y135335D02*
X257343Y122087D01*
X244094Y135335D02*
Y143701D01*
X249468Y149075D02*
Y164370D01*
X244094Y143701D02*
X249468Y149075D01*
X257343Y110197D02*
Y115157D01*
X241595Y198779D02*
Y213583D01*
X236221Y193405D02*
X241595Y198779D01*
X236221Y183524D02*
Y193405D01*
Y183524D02*
X249468Y170276D01*
X241595Y213583D02*
Y217972D01*
X251969Y228346D01*
X233720Y258405D02*
Y262795D01*
X212598Y158465D02*
X216535Y154528D01*
X203740Y158465D02*
X212598D01*
X219941Y117579D02*
Y123031D01*
X211614Y109252D02*
X219941Y117579D01*
X192913Y109252D02*
X211614D01*
X190413Y103347D02*
Y106752D01*
X192913Y109252D01*
X201240Y151575D02*
Y155965D01*
X203740Y158465D01*
X186476Y117579D02*
Y128937D01*
X282933Y251437D02*
Y254921D01*
X180118Y111221D02*
X186476Y117579D01*
X226831Y152559D02*
Y156949D01*
X240158Y170276D01*
X249468D01*
Y164370D02*
Y170276D01*
D11*
X147146Y189469D02*
X173228D01*
X147146D02*
Y235728D01*
X141732Y241142D02*
X147146Y235728D01*
Y150591D02*
Y189469D01*
X142717Y146161D02*
X147146Y150591D01*
D12*
X209035Y90551D02*
D03*
X219035D02*
D03*
X224035D02*
D03*
X292933Y254921D02*
D03*
X287933D02*
D03*
X277933D02*
D03*
X253327Y258858D02*
D03*
X263327D02*
D03*
X268327D02*
D03*
X243721Y262795D02*
D03*
X238720D02*
D03*
X228720D02*
D03*
X232658Y238189D02*
D03*
X242657D02*
D03*
X247657D02*
D03*
X251594Y213583D02*
D03*
X246595D02*
D03*
X236595D02*
D03*
X240531Y188976D02*
D03*
X250532D02*
D03*
X255532D02*
D03*
X259469Y164370D02*
D03*
X254468D02*
D03*
X244468D02*
D03*
X248406Y139764D02*
D03*
X258405D02*
D03*
X263405D02*
D03*
X267342Y115157D02*
D03*
X262343D02*
D03*
X252343D02*
D03*
X234626Y93504D02*
D03*
X244626D02*
D03*
X249626D02*
D03*
X200413Y103347D02*
D03*
X195413D02*
D03*
X185413D02*
D03*
X181476Y128937D02*
D03*
X191476D02*
D03*
X196476D02*
D03*
X211240Y151575D02*
D03*
X206240D02*
D03*
X196240D02*
D03*
X221831Y152559D02*
D03*
X231831D02*
D03*
X236831D02*
D03*
X229941Y123031D02*
D03*
X224941D02*
D03*
X214941D02*
D03*
D13*
X214035Y90551D02*
D03*
X282933Y254921D02*
D03*
X258327Y258858D02*
D03*
X233720Y262795D02*
D03*
X237657Y238189D02*
D03*
X241595Y213583D02*
D03*
X245532Y188976D02*
D03*
X249468Y164370D02*
D03*
X253405Y139764D02*
D03*
X257343Y115157D02*
D03*
X239626Y93504D02*
D03*
X190413Y103347D02*
D03*
X186476Y128937D02*
D03*
X201240Y151575D02*
D03*
X226831Y152559D02*
D03*
X219941Y123031D02*
D03*
D14*
X179626Y264272D02*
D03*
X172736Y165847D02*
D03*
X201870Y220571D02*
D03*
X201279Y189469D02*
D03*
X141732Y223425D02*
D03*
X173228Y189469D02*
D03*
X147146D02*
D03*
X141732Y241142D02*
D03*
X142717Y146161D02*
D03*
X145177Y103347D02*
D03*
M02*
