%FSLAX25Y25*%
%MOIN*%
G70*
G01*
G75*
G04 Layer_Physical_Order=1*
G04 Layer_Color=255*
%ADD10C,0.03150*%
%ADD11C,0.01575*%
%ADD12O,0.04213X0.07874*%
%ADD13R,0.04213X0.07874*%
%ADD14C,0.03937*%
G36*
X215059Y215551D02*
Y984D01*
X984D01*
Y215198D01*
X1338Y215551D01*
X215059Y215551D01*
D02*
G37*
%LPC*%
G36*
X23622Y165181D02*
X22903Y165087D01*
X22232Y164809D01*
X21657Y164367D01*
X21215Y163792D01*
X20937Y163121D01*
X20842Y162402D01*
X20937Y161682D01*
X21215Y161012D01*
X21657Y160436D01*
X22232Y159994D01*
X22900Y159718D01*
X26627Y155991D01*
Y112115D01*
X26351Y111448D01*
X26256Y110728D01*
X26351Y110009D01*
X26627Y109342D01*
Y72848D01*
X23884Y70105D01*
X23216Y69829D01*
X22641Y69387D01*
X22199Y68811D01*
X21921Y68141D01*
X21827Y67421D01*
X21921Y66702D01*
X22199Y66031D01*
X22641Y65456D01*
X23216Y65014D01*
X23887Y64736D01*
X24606Y64642D01*
X25326Y64736D01*
X25996Y65014D01*
X26572Y65456D01*
X27014Y66031D01*
X27290Y66699D01*
X30738Y70147D01*
X31051Y70616D01*
X31261Y70929D01*
X31444Y71850D01*
Y108320D01*
X53731D01*
X54399Y108043D01*
X55118Y107949D01*
X55838Y108043D01*
X56508Y108321D01*
X57084Y108763D01*
X57525Y109339D01*
X57803Y110009D01*
X57898Y110728D01*
X57803Y111448D01*
X57525Y112118D01*
X57084Y112694D01*
X56508Y113136D01*
X55838Y113413D01*
X55118Y113508D01*
X54399Y113413D01*
X53731Y113137D01*
X31444D01*
Y156988D01*
X31261Y157910D01*
X30738Y158691D01*
X26306Y163124D01*
X26029Y163792D01*
X25588Y164367D01*
X25012Y164809D01*
X24341Y165087D01*
X23622Y165181D01*
D02*
G37*
G36*
X125610Y188804D02*
X124855Y188705D01*
X124151Y188414D01*
X123547Y187950D01*
X123360Y187707D01*
X122860D01*
X122674Y187950D01*
X122070Y188414D01*
X121366Y188705D01*
X120610Y188804D01*
X119855Y188705D01*
X119151Y188414D01*
X119004Y188301D01*
X118504Y188547D01*
Y188780D01*
X112717D01*
Y188547D01*
X112217Y188301D01*
X112070Y188414D01*
X111366Y188705D01*
X110610Y188804D01*
X109855Y188705D01*
X109151Y188414D01*
X108546Y187950D01*
X108083Y187345D01*
X107791Y186641D01*
X107692Y185886D01*
Y182225D01*
X107791Y181469D01*
X108083Y180765D01*
X108546Y180161D01*
X109151Y179697D01*
X109855Y179405D01*
X110610Y179306D01*
X111366Y179405D01*
X112070Y179697D01*
X112217Y179810D01*
X112717Y179563D01*
Y179331D01*
X114071D01*
X114107Y179153D01*
X114127Y179051D01*
X114475Y178530D01*
X123865Y169140D01*
X124386Y168792D01*
X124487Y168772D01*
X125000Y168670D01*
X125000Y168670D01*
X132253D01*
Y163329D01*
X131753Y163159D01*
X131611Y163343D01*
X131007Y163807D01*
X130303Y164099D01*
X129547Y164198D01*
X128792Y164099D01*
X128088Y163807D01*
X127483Y163343D01*
X127297Y163101D01*
X126797D01*
X126611Y163343D01*
X126007Y163807D01*
X125303Y164099D01*
X124547Y164198D01*
X123792Y164099D01*
X123088Y163807D01*
X122941Y163695D01*
X122441Y163941D01*
Y164173D01*
X116654D01*
Y163941D01*
X116154Y163695D01*
X116007Y163807D01*
X115303Y164099D01*
X114547Y164198D01*
X113792Y164099D01*
X113088Y163807D01*
X112484Y163343D01*
X112020Y162739D01*
X111728Y162035D01*
X111629Y161280D01*
Y157618D01*
X111728Y156863D01*
X112020Y156159D01*
X112484Y155554D01*
X113088Y155090D01*
X113792Y154799D01*
X114547Y154700D01*
X115303Y154799D01*
X116007Y155090D01*
X116154Y155203D01*
X116654Y154957D01*
Y154725D01*
X122441D01*
Y154957D01*
X122941Y155203D01*
X123088Y155090D01*
X123792Y154799D01*
X124547Y154700D01*
X125303Y154799D01*
X126007Y155090D01*
X126611Y155554D01*
X126797Y155797D01*
X127297D01*
X127483Y155554D01*
X128088Y155090D01*
X128792Y154799D01*
X129547Y154700D01*
X130303Y154799D01*
X131007Y155090D01*
X131611Y155554D01*
X131753Y155739D01*
X132253Y155569D01*
Y150271D01*
X122349Y140368D01*
X122001Y139847D01*
X121981Y139745D01*
X121945Y139567D01*
X120591D01*
Y139335D01*
X120091Y139088D01*
X119944Y139201D01*
X119240Y139492D01*
X118484Y139592D01*
X117729Y139492D01*
X117025Y139201D01*
X116420Y138737D01*
X115957Y138133D01*
X115665Y137429D01*
X115566Y136673D01*
Y133012D01*
X115665Y132256D01*
X115957Y131553D01*
X116420Y130948D01*
X117025Y130484D01*
X117729Y130193D01*
X118484Y130093D01*
X119240Y130193D01*
X119944Y130484D01*
X120091Y130597D01*
X120591Y130350D01*
Y130118D01*
X121879D01*
Y120704D01*
X116975Y115801D01*
X116627Y115280D01*
X116607Y115178D01*
X116505Y114665D01*
X116505Y114665D01*
Y104784D01*
X116505Y104783D01*
X116607Y104271D01*
X116627Y104169D01*
X116975Y103648D01*
X127020Y93603D01*
X126829Y93141D01*
X122047D01*
X121433Y93019D01*
X120912Y92671D01*
X120912Y92671D01*
X107585Y79344D01*
X107237Y78823D01*
X107217Y78721D01*
X107181Y78543D01*
X105827D01*
Y78311D01*
X105327Y78065D01*
X105180Y78177D01*
X104476Y78469D01*
X103720Y78568D01*
X102965Y78469D01*
X102261Y78177D01*
X101657Y77714D01*
X101193Y77109D01*
X100901Y76405D01*
X100802Y75650D01*
Y71988D01*
X100901Y71233D01*
X101193Y70529D01*
X101657Y69924D01*
X102261Y69461D01*
X102965Y69169D01*
X103720Y69070D01*
X104476Y69169D01*
X105180Y69461D01*
X105327Y69573D01*
X105827Y69327D01*
Y69095D01*
X111614D01*
Y69327D01*
X112114Y69573D01*
X112261Y69461D01*
X112965Y69169D01*
X113721Y69070D01*
X114476Y69169D01*
X115180Y69461D01*
X115784Y69924D01*
X115971Y70167D01*
X116471D01*
X116657Y69924D01*
X117261Y69461D01*
X117965Y69169D01*
X118720Y69070D01*
X119476Y69169D01*
X120180Y69461D01*
X120784Y69924D01*
X121248Y70529D01*
X121540Y71233D01*
X121639Y71988D01*
Y75650D01*
X121540Y76405D01*
X121248Y77109D01*
X120784Y77714D01*
X120180Y78177D01*
X119476Y78469D01*
X118720Y78568D01*
X117965Y78469D01*
X117261Y78177D01*
X116657Y77714D01*
X116471Y77471D01*
X115971D01*
X115784Y77714D01*
X115180Y78177D01*
X114476Y78469D01*
X113721Y78568D01*
X112965Y78469D01*
X112261Y78177D01*
X112114Y78065D01*
X111909Y78166D01*
X111614Y78543D01*
X111767Y78984D01*
X122712Y89930D01*
X124073D01*
X124222Y89430D01*
X123831Y88920D01*
X123539Y88216D01*
X123440Y87461D01*
Y83799D01*
X123539Y83044D01*
X123831Y82340D01*
X124294Y81735D01*
X124899Y81272D01*
X125603Y80980D01*
X126358Y80881D01*
X127114Y80980D01*
X127818Y81272D01*
X127965Y81384D01*
X128465Y81138D01*
Y80906D01*
X129753D01*
Y71000D01*
X124849Y66096D01*
X124501Y65575D01*
X124481Y65473D01*
X124379Y64961D01*
X124379Y64961D01*
Y56595D01*
X124379Y56595D01*
X124481Y56082D01*
X124501Y55980D01*
X124849Y55459D01*
X137627Y42681D01*
Y41142D01*
X136339D01*
Y40909D01*
X135839Y40663D01*
X135692Y40776D01*
X134988Y41067D01*
X134232Y41167D01*
X133477Y41067D01*
X132773Y40776D01*
X132168Y40312D01*
X131705Y39707D01*
X131413Y39004D01*
X131314Y38248D01*
Y34587D01*
X131413Y33831D01*
X131705Y33127D01*
X132168Y32523D01*
X132773Y32059D01*
X133477Y31767D01*
X134232Y31668D01*
X134988Y31767D01*
X135692Y32059D01*
X135839Y32172D01*
X136339Y31925D01*
Y31693D01*
X136545D01*
X136736Y31231D01*
X128272Y22767D01*
X100886D01*
X100886Y22767D01*
X100373Y22665D01*
X100271Y22645D01*
X99751Y22297D01*
X95925Y18472D01*
X95053Y19344D01*
X94532Y19692D01*
X94430Y19712D01*
X93917Y19814D01*
X93917Y19814D01*
X83982D01*
X83904Y19968D01*
X83849Y20314D01*
X84367Y20712D01*
X84831Y21316D01*
X85122Y22020D01*
X85222Y22776D01*
Y26437D01*
X85122Y27193D01*
X84831Y27896D01*
X84440Y28406D01*
X84589Y28906D01*
X93504D01*
X93504Y28906D01*
X94016Y29008D01*
X94118Y29028D01*
X94639Y29377D01*
X102966Y37703D01*
X103314Y38224D01*
X103436Y38839D01*
Y39567D01*
X104725D01*
Y39799D01*
X105225Y40046D01*
X105371Y39933D01*
X106075Y39641D01*
X106831Y39542D01*
X107586Y39641D01*
X108290Y39933D01*
X108895Y40397D01*
X109081Y40639D01*
X109581D01*
X109767Y40397D01*
X110371Y39933D01*
X111075Y39641D01*
X111831Y39542D01*
X112586Y39641D01*
X113290Y39933D01*
X113895Y40397D01*
X114358Y41001D01*
X114650Y41705D01*
X114749Y42461D01*
Y46122D01*
X114650Y46878D01*
X114358Y47581D01*
X113895Y48186D01*
X113290Y48650D01*
X112586Y48941D01*
X111831Y49041D01*
X111075Y48941D01*
X110371Y48650D01*
X109767Y48186D01*
X109581Y47943D01*
X109081D01*
X108895Y48186D01*
X108290Y48650D01*
X107586Y48941D01*
X106831Y49041D01*
X106075Y48941D01*
X105371Y48650D01*
X105225Y48537D01*
X104725Y48784D01*
Y49016D01*
X103834D01*
X103436Y49252D01*
X103334Y49764D01*
X103314Y49867D01*
X102966Y50387D01*
X102966Y50387D01*
X100031Y53323D01*
Y75788D01*
X99909Y76402D01*
X99561Y76923D01*
X99561Y76923D01*
X95624Y80860D01*
X95103Y81208D01*
X95001Y81228D01*
X94488Y81330D01*
X94488Y81330D01*
X85630D01*
X85015Y81208D01*
X84495Y80860D01*
X84495Y80860D01*
X81995Y78360D01*
X81647Y77839D01*
X81626Y77737D01*
X81591Y77559D01*
X80236D01*
Y77327D01*
X79736Y77080D01*
X79589Y77193D01*
X78885Y77485D01*
X78130Y77584D01*
X77375Y77485D01*
X76671Y77193D01*
X76066Y76729D01*
X75602Y76125D01*
X75311Y75421D01*
X75211Y74665D01*
Y71004D01*
X75311Y70249D01*
X75602Y69545D01*
X76066Y68940D01*
X76671Y68476D01*
X77375Y68185D01*
X78130Y68085D01*
X78885Y68185D01*
X79589Y68476D01*
X79736Y68589D01*
X80236Y68343D01*
Y68110D01*
X86024D01*
Y68343D01*
X86524Y68589D01*
X86671Y68476D01*
X87375Y68185D01*
X88130Y68085D01*
X88885Y68185D01*
X89589Y68476D01*
X90194Y68940D01*
X90380Y69183D01*
X90880D01*
X91066Y68940D01*
X91671Y68476D01*
X92374Y68185D01*
X93130Y68085D01*
X93885Y68185D01*
X94589Y68476D01*
X95194Y68940D01*
X95658Y69545D01*
X95949Y70249D01*
X96049Y71004D01*
Y74665D01*
X95970Y75265D01*
X96430Y75512D01*
X96820Y75122D01*
Y52658D01*
X96820Y52658D01*
X96921Y52145D01*
X96942Y52043D01*
X97290Y51522D01*
X99334Y49478D01*
X99143Y49016D01*
X98937D01*
Y48784D01*
X98437Y48537D01*
X98290Y48650D01*
X97586Y48941D01*
X96831Y49041D01*
X96075Y48941D01*
X95371Y48650D01*
X94767Y48186D01*
X94303Y47581D01*
X94011Y46878D01*
X93912Y46122D01*
Y42461D01*
X94011Y41705D01*
X94303Y41001D01*
X94767Y40397D01*
X95371Y39933D01*
X96075Y39641D01*
X96831Y39542D01*
X97586Y39641D01*
X98290Y39933D01*
X98437Y40046D01*
X98937Y39799D01*
Y39567D01*
X99581D01*
X99788Y39067D01*
X92839Y32118D01*
X74803D01*
X74189Y31995D01*
X73668Y31647D01*
X73668Y31647D01*
X71351Y29331D01*
X69410D01*
Y29098D01*
X68910Y28852D01*
X68762Y28965D01*
X68059Y29256D01*
X67303Y29356D01*
X66548Y29256D01*
X65844Y28965D01*
X65239Y28501D01*
X64776Y27896D01*
X64484Y27193D01*
X64385Y26437D01*
Y22776D01*
X64484Y22020D01*
X64736Y21411D01*
X64312Y21128D01*
X63614Y21827D01*
Y31815D01*
X69502Y37703D01*
X69502Y37703D01*
X69850Y38224D01*
X69972Y38839D01*
Y45472D01*
X71260D01*
Y45705D01*
X71760Y45951D01*
X71907Y45838D01*
X72611Y45547D01*
X73366Y45447D01*
X74122Y45547D01*
X74826Y45838D01*
X75430Y46302D01*
X75616Y46545D01*
X76116D01*
X76302Y46302D01*
X76907Y45838D01*
X77611Y45547D01*
X78366Y45447D01*
X79122Y45547D01*
X79826Y45838D01*
X80430Y46302D01*
X80894Y46907D01*
X81185Y47611D01*
X81285Y48366D01*
Y52028D01*
X81185Y52783D01*
X80894Y53487D01*
X80430Y54091D01*
X79826Y54555D01*
X79122Y54847D01*
X78366Y54946D01*
X77611Y54847D01*
X76907Y54555D01*
X76302Y54091D01*
X76116Y53849D01*
X75616D01*
X75430Y54091D01*
X74826Y54555D01*
X74122Y54847D01*
X73366Y54946D01*
X72611Y54847D01*
X71907Y54555D01*
X71760Y54443D01*
X71260Y54689D01*
Y54921D01*
X65473D01*
Y54689D01*
X64973Y54443D01*
X64825Y54555D01*
X64122Y54847D01*
X63366Y54946D01*
X62611Y54847D01*
X61907Y54555D01*
X61302Y54091D01*
X60839Y53487D01*
X60547Y52783D01*
X60448Y52028D01*
Y48366D01*
X60547Y47611D01*
X60839Y46907D01*
X61302Y46302D01*
X61907Y45838D01*
X62611Y45547D01*
X63366Y45447D01*
X64122Y45547D01*
X64825Y45838D01*
X64973Y45951D01*
X65473Y45705D01*
Y45472D01*
X66760D01*
Y39504D01*
X60873Y33616D01*
X60524Y33095D01*
X60504Y32993D01*
X60402Y32480D01*
X60402Y32480D01*
Y21161D01*
X60402Y21161D01*
X60504Y20649D01*
X60524Y20547D01*
X60873Y20026D01*
X63825Y17073D01*
X63825Y17073D01*
X64346Y16725D01*
X64961Y16603D01*
X89246D01*
X89324Y16450D01*
X89379Y16103D01*
X88861Y15706D01*
X88398Y15101D01*
X88106Y14397D01*
X88007Y13642D01*
Y9980D01*
X88106Y9225D01*
X88398Y8521D01*
X88861Y7916D01*
X89466Y7453D01*
X90170Y7161D01*
X90925Y7062D01*
X91681Y7161D01*
X92385Y7453D01*
X92532Y7565D01*
X93032Y7319D01*
Y7087D01*
X98819D01*
Y7319D01*
X99319Y7565D01*
X99466Y7453D01*
X100170Y7161D01*
X100925Y7062D01*
X101681Y7161D01*
X102385Y7453D01*
X102989Y7916D01*
X103175Y8159D01*
X103675D01*
X103861Y7916D01*
X104466Y7453D01*
X105170Y7161D01*
X105925Y7062D01*
X106681Y7161D01*
X107385Y7453D01*
X107989Y7916D01*
X108453Y8521D01*
X108745Y9225D01*
X108844Y9980D01*
Y13642D01*
X108745Y14397D01*
X108453Y15101D01*
X107989Y15706D01*
X107385Y16169D01*
X106681Y16461D01*
X105925Y16560D01*
X105170Y16461D01*
X104466Y16169D01*
X103861Y15706D01*
X103675Y15463D01*
X103175D01*
X102989Y15706D01*
X102385Y16169D01*
X101681Y16461D01*
X100925Y16560D01*
X100170Y16461D01*
X99466Y16169D01*
X99319Y16057D01*
X99114Y16158D01*
X98819Y16535D01*
X98972Y16976D01*
X101551Y19556D01*
X114837D01*
X114915Y19402D01*
X114970Y19056D01*
X114452Y18658D01*
X113988Y18054D01*
X113697Y17350D01*
X113597Y16594D01*
Y12933D01*
X113697Y12178D01*
X113988Y11474D01*
X114452Y10869D01*
X115056Y10406D01*
X115760Y10114D01*
X116516Y10014D01*
X117271Y10114D01*
X117975Y10406D01*
X118122Y10518D01*
X118622Y10272D01*
Y10039D01*
X124409D01*
Y10272D01*
X124909Y10518D01*
X125056Y10406D01*
X125760Y10114D01*
X126516Y10014D01*
X127271Y10114D01*
X127975Y10406D01*
X128580Y10869D01*
X128766Y11112D01*
X129266D01*
X129452Y10869D01*
X130056Y10406D01*
X130760Y10114D01*
X131516Y10014D01*
X132271Y10114D01*
X132975Y10406D01*
X133580Y10869D01*
X134043Y11474D01*
X134335Y12178D01*
X134434Y12933D01*
Y16594D01*
X134335Y17350D01*
X134043Y18054D01*
X133580Y18658D01*
X132975Y19122D01*
X132271Y19414D01*
X131516Y19513D01*
X130760Y19414D01*
X130056Y19122D01*
X129452Y18658D01*
X129266Y18416D01*
X128766D01*
X128580Y18658D01*
X128062Y19056D01*
X128117Y19402D01*
X128195Y19556D01*
X128937D01*
X128937Y19556D01*
X129450Y19658D01*
X129551Y19678D01*
X130072Y20026D01*
X140368Y30321D01*
X140716Y30842D01*
X140736Y30944D01*
X140838Y31457D01*
X141236Y31693D01*
X142126D01*
Y31925D01*
X142626Y32172D01*
X142773Y32059D01*
X143477Y31767D01*
X144232Y31668D01*
X144988Y31767D01*
X145692Y32059D01*
X146296Y32523D01*
X146482Y32765D01*
X146982D01*
X147169Y32523D01*
X147773Y32059D01*
X148477Y31767D01*
X149232Y31668D01*
X149988Y31767D01*
X150692Y32059D01*
X151296Y32523D01*
X151760Y33127D01*
X152051Y33831D01*
X152151Y34587D01*
Y38248D01*
X152051Y39004D01*
X151760Y39707D01*
X151296Y40312D01*
X150692Y40776D01*
X149988Y41067D01*
X149232Y41167D01*
X148477Y41067D01*
X147773Y40776D01*
X147169Y40312D01*
X146982Y40069D01*
X146482D01*
X146296Y40312D01*
X145692Y40776D01*
X144988Y41067D01*
X144232Y41167D01*
X143477Y41067D01*
X142773Y40776D01*
X142626Y40663D01*
X142126Y40909D01*
Y41142D01*
X140838D01*
Y43347D01*
X140838Y43347D01*
X140736Y43859D01*
X140716Y43961D01*
X140368Y44482D01*
X128647Y56202D01*
X128930Y56626D01*
X129540Y56374D01*
X130295Y56274D01*
X131051Y56374D01*
X131755Y56665D01*
X131902Y56778D01*
X132402Y56532D01*
Y56299D01*
X138189D01*
Y56532D01*
X138689Y56778D01*
X138836Y56665D01*
X139540Y56374D01*
X140295Y56274D01*
X141051Y56374D01*
X141755Y56665D01*
X142359Y57129D01*
X142545Y57372D01*
X143045D01*
X143231Y57129D01*
X143836Y56665D01*
X144540Y56374D01*
X145295Y56274D01*
X146051Y56374D01*
X146755Y56665D01*
X147359Y57129D01*
X147823Y57734D01*
X148115Y58438D01*
X148214Y59193D01*
Y62854D01*
X148115Y63610D01*
X147823Y64314D01*
X147359Y64918D01*
X146755Y65382D01*
X146051Y65674D01*
X145295Y65773D01*
X144540Y65674D01*
X143836Y65382D01*
X143231Y64918D01*
X143045Y64675D01*
X142545D01*
X142359Y64918D01*
X141755Y65382D01*
X141051Y65674D01*
X140295Y65773D01*
X139540Y65674D01*
X138836Y65382D01*
X138689Y65269D01*
X138189Y65516D01*
Y65748D01*
X132402D01*
Y65516D01*
X131902Y65269D01*
X131755Y65382D01*
X131051Y65674D01*
X130295Y65773D01*
X129696Y65694D01*
X129449Y66154D01*
X132494Y69199D01*
X132494Y69199D01*
X132842Y69720D01*
X132862Y69822D01*
X132964Y70335D01*
X132964Y70335D01*
Y80906D01*
X134252D01*
Y81138D01*
X134752Y81384D01*
X134899Y81272D01*
X135603Y80980D01*
X136358Y80881D01*
X137114Y80980D01*
X137818Y81272D01*
X138422Y81735D01*
X138608Y81978D01*
X139108D01*
X139295Y81735D01*
X139899Y81272D01*
X140603Y80980D01*
X141358Y80881D01*
X142114Y80980D01*
X142818Y81272D01*
X143422Y81735D01*
X143886Y82340D01*
X144177Y83044D01*
X144277Y83799D01*
Y87461D01*
X144177Y88216D01*
X143886Y88920D01*
X143422Y89525D01*
X142818Y89988D01*
X142114Y90280D01*
X141358Y90379D01*
X140603Y90280D01*
X139899Y89988D01*
X139295Y89525D01*
X139108Y89282D01*
X138608D01*
X138422Y89525D01*
X137818Y89988D01*
X137114Y90280D01*
X136358Y90379D01*
X135603Y90280D01*
X134899Y89988D01*
X134752Y89876D01*
X134252Y90122D01*
Y90354D01*
X132964D01*
Y91536D01*
X132842Y92150D01*
X132494Y92671D01*
X132494Y92671D01*
X119716Y105449D01*
Y106357D01*
X120216Y106526D01*
X120358Y106342D01*
X120962Y105878D01*
X121666Y105586D01*
X122421Y105487D01*
X123177Y105586D01*
X123881Y105878D01*
X124028Y105991D01*
X124528Y105744D01*
Y105512D01*
X130315D01*
Y105744D01*
X130815Y105991D01*
X130962Y105878D01*
X131666Y105586D01*
X132421Y105487D01*
X133177Y105586D01*
X133881Y105878D01*
X134485Y106342D01*
X134671Y106584D01*
X135171D01*
X135357Y106342D01*
X135962Y105878D01*
X136666Y105586D01*
X137421Y105487D01*
X138177Y105586D01*
X138881Y105878D01*
X139485Y106342D01*
X139949Y106946D01*
X140241Y107650D01*
X140340Y108406D01*
Y112067D01*
X140241Y112822D01*
X139949Y113526D01*
X139485Y114131D01*
X138881Y114595D01*
X138177Y114886D01*
X137421Y114986D01*
X136666Y114886D01*
X135962Y114595D01*
X135357Y114131D01*
X135171Y113888D01*
X134671D01*
X134485Y114131D01*
X133881Y114595D01*
X133177Y114886D01*
X132421Y114986D01*
X131666Y114886D01*
X130962Y114595D01*
X130815Y114482D01*
X130315Y114728D01*
Y114961D01*
X124528D01*
Y114728D01*
X124028Y114482D01*
X123881Y114595D01*
X123177Y114886D01*
X122421Y114986D01*
X121666Y114886D01*
X121056Y114634D01*
X120773Y115058D01*
X124620Y118904D01*
X124620Y118904D01*
X124968Y119425D01*
X124988Y119527D01*
X125090Y120039D01*
X125090Y120039D01*
Y130118D01*
X126378D01*
Y130350D01*
X126878Y130597D01*
X127025Y130484D01*
X127729Y130193D01*
X128484Y130093D01*
X129240Y130193D01*
X129944Y130484D01*
X130548Y130948D01*
X130734Y131191D01*
X131234D01*
X131421Y130948D01*
X132025Y130484D01*
X132729Y130193D01*
X133484Y130093D01*
X134240Y130193D01*
X134944Y130484D01*
X135548Y130948D01*
X136012Y131553D01*
X136303Y132256D01*
X136403Y133012D01*
Y136673D01*
X136303Y137429D01*
X136012Y138133D01*
X135548Y138737D01*
X134944Y139201D01*
X134240Y139492D01*
X133484Y139592D01*
X132729Y139492D01*
X132025Y139201D01*
X131421Y138737D01*
X131234Y138494D01*
X130734D01*
X130548Y138737D01*
X129944Y139201D01*
X129240Y139492D01*
X128484Y139592D01*
X127729Y139492D01*
X127025Y139201D01*
X126878Y139088D01*
X126673Y139189D01*
X126378Y139567D01*
X126531Y140008D01*
X134994Y148471D01*
X135342Y148992D01*
X135362Y149094D01*
X135464Y149606D01*
X135464Y149606D01*
Y168670D01*
X162402D01*
X162402Y168670D01*
X162914Y168772D01*
X163016Y168792D01*
X163537Y169140D01*
X165853Y171457D01*
X167717D01*
Y171689D01*
X168217Y171936D01*
X168363Y171823D01*
X169068Y171531D01*
X169823Y171432D01*
X170578Y171531D01*
X171282Y171823D01*
X171887Y172287D01*
X172073Y172529D01*
X172573D01*
X172759Y172287D01*
X173363Y171823D01*
X174067Y171531D01*
X174823Y171432D01*
X175578Y171531D01*
X176282Y171823D01*
X176887Y172287D01*
X177350Y172891D01*
X177642Y173595D01*
X177742Y174350D01*
Y178012D01*
X177642Y178767D01*
X177350Y179471D01*
X176887Y180076D01*
X176282Y180540D01*
X175578Y180831D01*
X174823Y180930D01*
X174067Y180831D01*
X173363Y180540D01*
X172759Y180076D01*
X172573Y179833D01*
X172073D01*
X171887Y180076D01*
X171282Y180540D01*
X170578Y180831D01*
X169823Y180930D01*
X169068Y180831D01*
X168363Y180540D01*
X168217Y180427D01*
X167717Y180673D01*
Y180906D01*
X161929D01*
Y180673D01*
X161429Y180427D01*
X161282Y180540D01*
X160578Y180831D01*
X159823Y180930D01*
X159067Y180831D01*
X158363Y180540D01*
X157759Y180076D01*
X157295Y179471D01*
X157004Y178767D01*
X156904Y178012D01*
Y174350D01*
X157004Y173595D01*
X157295Y172891D01*
X157686Y172381D01*
X157537Y171881D01*
X125665D01*
X118657Y178890D01*
X118504Y179331D01*
X118799Y179709D01*
X119004Y179810D01*
X119151Y179697D01*
X119855Y179405D01*
X120610Y179306D01*
X121366Y179405D01*
X122070Y179697D01*
X122674Y180161D01*
X122860Y180403D01*
X123360D01*
X123547Y180161D01*
X124151Y179697D01*
X124855Y179405D01*
X125610Y179306D01*
X126366Y179405D01*
X127070Y179697D01*
X127674Y180161D01*
X128138Y180765D01*
X128429Y181469D01*
X128529Y182225D01*
Y185886D01*
X128429Y186641D01*
X128138Y187345D01*
X127674Y187950D01*
X127070Y188414D01*
X126366Y188705D01*
X125610Y188804D01*
D02*
G37*
G36*
X150217Y184868D02*
X149461Y184768D01*
X148757Y184476D01*
X148153Y184013D01*
X147967Y183770D01*
X147467D01*
X147280Y184013D01*
X146676Y184476D01*
X145972Y184768D01*
X145217Y184868D01*
X144461Y184768D01*
X143757Y184476D01*
X143610Y184364D01*
X143110Y184610D01*
Y184843D01*
X137323D01*
Y184610D01*
X136823Y184364D01*
X136676Y184476D01*
X135972Y184768D01*
X135217Y184868D01*
X134461Y184768D01*
X133757Y184476D01*
X133153Y184013D01*
X132689Y183408D01*
X132397Y182704D01*
X132298Y181949D01*
Y178287D01*
X132397Y177532D01*
X132689Y176828D01*
X133153Y176224D01*
X133757Y175760D01*
X134461Y175468D01*
X135217Y175369D01*
X135972Y175468D01*
X136676Y175760D01*
X136823Y175873D01*
X137323Y175626D01*
Y175394D01*
X143110D01*
Y175626D01*
X143610Y175873D01*
X143757Y175760D01*
X144461Y175468D01*
X145217Y175369D01*
X145972Y175468D01*
X146676Y175760D01*
X147280Y176224D01*
X147467Y176466D01*
X147967D01*
X148153Y176224D01*
X148757Y175760D01*
X149461Y175468D01*
X150217Y175369D01*
X150972Y175468D01*
X151676Y175760D01*
X152280Y176224D01*
X152744Y176828D01*
X153036Y177532D01*
X153135Y178287D01*
Y181949D01*
X153036Y182704D01*
X152744Y183408D01*
X152280Y184013D01*
X151676Y184476D01*
X150972Y184768D01*
X150217Y184868D01*
D02*
G37*
%LPD*%
D10*
X24606Y67421D02*
X29035Y71850D01*
Y110728D01*
X23622Y162402D02*
X29035Y156988D01*
Y110728D02*
Y156988D01*
Y110728D02*
X55118D01*
D11*
X131358Y85630D02*
Y91536D01*
X122047D02*
X131358D01*
X108721Y78209D02*
X122047Y91536D01*
X108721Y73819D02*
Y78209D01*
X62008Y32480D02*
X68366Y38839D01*
X164823Y172697D02*
Y176181D01*
X68366Y38839D02*
Y50197D01*
X83130Y77224D02*
X85630Y79725D01*
X83130Y72835D02*
Y77224D01*
X72303Y28012D02*
X74803Y30512D01*
X72303Y24606D02*
Y28012D01*
X74803Y30512D02*
X93504D01*
X101831Y38839D01*
Y44291D01*
X85630Y79725D02*
X94488D01*
X98425Y75788D01*
X115610Y179665D02*
Y184055D01*
X123484Y139232D02*
X133858Y149606D01*
X123484Y134843D02*
Y139232D01*
X118110Y104783D02*
X131358Y91536D01*
X118110Y104783D02*
Y114665D01*
X123484Y120039D01*
Y134843D01*
X139232Y31457D02*
Y36417D01*
X125984Y64961D02*
X131358Y70335D01*
Y85630D01*
X125984Y56595D02*
Y64961D01*
Y56595D02*
X139232Y43347D01*
Y36417D02*
Y43347D01*
X128937Y21161D02*
X139232Y31457D01*
X95925Y11811D02*
Y16201D01*
X100886Y21161D01*
X128937D01*
X93917Y18209D02*
X95925Y16201D01*
X62008Y21161D02*
Y32480D01*
Y21161D02*
X64961Y18209D01*
X93917D01*
X98425Y52658D02*
Y75788D01*
Y52658D02*
X101831Y49252D01*
Y44291D02*
Y49252D01*
X133858Y170276D02*
X162402D01*
X164823Y172697D01*
X115610Y179665D02*
X125000Y170276D01*
X133858D01*
Y149606D02*
Y170276D01*
D12*
X96831Y44291D02*
D03*
X106831D02*
D03*
X111831D02*
D03*
X118720Y73819D02*
D03*
X113721D02*
D03*
X103720D02*
D03*
X78130Y72835D02*
D03*
X88130D02*
D03*
X93130D02*
D03*
X78366Y50197D02*
D03*
X73366D02*
D03*
X63366D02*
D03*
X67303Y24606D02*
D03*
X77303D02*
D03*
X82303D02*
D03*
X131516Y14764D02*
D03*
X126516D02*
D03*
X116516D02*
D03*
X134232Y36417D02*
D03*
X144232D02*
D03*
X149232D02*
D03*
X145295Y61024D02*
D03*
X140295D02*
D03*
X130295D02*
D03*
X126358Y85630D02*
D03*
X136358D02*
D03*
X141358D02*
D03*
X137421Y110236D02*
D03*
X132421D02*
D03*
X122421D02*
D03*
X118484Y134843D02*
D03*
X128484D02*
D03*
X133484D02*
D03*
X129547Y159449D02*
D03*
X124547D02*
D03*
X114547D02*
D03*
X110610Y184055D02*
D03*
X120610D02*
D03*
X125610D02*
D03*
X150217Y180118D02*
D03*
X145217D02*
D03*
X135217D02*
D03*
X159823Y176181D02*
D03*
X169823D02*
D03*
X174823D02*
D03*
X105925Y11811D02*
D03*
X100925D02*
D03*
X90925D02*
D03*
D13*
X101831Y44291D02*
D03*
X108721Y73819D02*
D03*
X83130Y72835D02*
D03*
X68366Y50197D02*
D03*
X72303Y24606D02*
D03*
X121516Y14764D02*
D03*
X139232Y36417D02*
D03*
X135295Y61024D02*
D03*
X131358Y85630D02*
D03*
X127421Y110236D02*
D03*
X123484Y134843D02*
D03*
X119547Y159449D02*
D03*
X115610Y184055D02*
D03*
X140217Y180118D02*
D03*
X164823Y176181D02*
D03*
X95925Y11811D02*
D03*
D14*
X27067Y24606D02*
D03*
X24606Y67421D02*
D03*
X23622Y162402D02*
D03*
X29035Y110728D02*
D03*
X55118D02*
D03*
X23622Y144685D02*
D03*
X83169Y110728D02*
D03*
X83760Y141831D02*
D03*
X54626Y87106D02*
D03*
X61516Y185531D02*
D03*
M02*
