%FSLAX25Y25*%
%MOIN*%
G70*
G01*
G75*
G04 Layer_Color=32896*
%ADD10C,0.03150*%
%ADD11C,0.01575*%
%ADD12O,0.04213X0.07874*%
%ADD13R,0.04213X0.07874*%
%ADD14C,0.03937*%
%ADD15R,0.05118X0.05906*%
%ADD16R,0.15748X0.13780*%
%ADD17R,0.15748X0.15748*%
%ADD18R,0.14961X0.15748*%
G04:AMPARAMS|DCode=19|XSize=94.49mil|YSize=29.92mil|CornerRadius=7.48mil|HoleSize=0mil|Usage=FLASHONLY|Rotation=90.000|XOffset=0mil|YOffset=0mil|HoleType=Round|Shape=RoundedRectangle|*
%AMROUNDEDRECTD19*
21,1,0.09449,0.01496,0,0,90.0*
21,1,0.07953,0.02992,0,0,90.0*
1,1,0.01496,0.00748,0.03976*
1,1,0.01496,0.00748,-0.03976*
1,1,0.01496,-0.00748,-0.03976*
1,1,0.01496,-0.00748,0.03976*
%
%ADD19ROUNDEDRECTD19*%
%ADD20R,0.02992X0.09449*%
%ADD21R,0.04331X0.06693*%
%ADD22R,0.06693X0.04331*%
%ADD23R,0.02362X0.05118*%
%ADD24O,0.06890X0.02165*%
%ADD25O,0.02165X0.06890*%
%ADD26R,0.05906X0.05118*%
%ADD27C,0.01969*%
%ADD28C,0.01181*%
%ADD29R,0.86614X0.19685*%
%ADD30C,0.00787*%
%ADD31C,0.00984*%
%ADD32C,0.02362*%
D30*
X56102Y182087D02*
G03*
X56102Y179587I0J-1250D01*
G01*
Y182087D02*
Y188583D01*
Y173228D02*
Y179528D01*
X22638Y188583D02*
X56102D01*
X22638Y173228D02*
Y188583D01*
Y173228D02*
X56102D01*
X52559Y82677D02*
X55709D01*
X52559Y76772D02*
X55709D01*
X25984Y87599D02*
X29134D01*
X25984Y81693D02*
X29134D01*
X69882Y180512D02*
Y183661D01*
X75787Y180512D02*
Y183661D01*
X19685Y31693D02*
Y34449D01*
X16535Y31693D02*
X19685D01*
X7874D02*
Y34449D01*
Y31693D02*
X11024D01*
X24606Y51378D02*
Y54134D01*
X21457Y51378D02*
X24606D01*
X12795D02*
Y54134D01*
Y51378D02*
X15945D01*
X18799Y99508D02*
Y149508D01*
X68799Y99508D02*
Y149508D01*
X18799Y99508D02*
X68799D01*
X18799Y149508D02*
X68799D01*
X73164Y171587D02*
X73820Y172243D01*
X75131D01*
X75787Y171587D01*
Y168963D01*
X75131Y168307D01*
X73820D01*
X73164Y168963D01*
X71852Y168307D02*
X70540D01*
X71196D01*
Y172243D01*
X71852Y171587D01*
X26412Y32644D02*
Y35268D01*
X27068Y35924D01*
X28379D01*
X29035Y35268D01*
Y32644D01*
X28379Y31988D01*
X27068D01*
X27724Y33300D02*
X26412Y31988D01*
X27068D02*
X26412Y32644D01*
X25100Y35268D02*
X24444Y35924D01*
X23132D01*
X22476Y35268D01*
Y32644D01*
X23132Y31988D01*
X24444D01*
X25100Y32644D01*
Y35268D01*
X6727Y52821D02*
Y55445D01*
X7383Y56101D01*
X8694D01*
X9350Y55445D01*
Y52821D01*
X8694Y52165D01*
X7383D01*
X8038Y53477D02*
X6727Y52165D01*
X7383D02*
X6727Y52821D01*
X5415Y52165D02*
X4103D01*
X4759D01*
Y56101D01*
X5415Y55445D01*
X42160Y81036D02*
X42816Y81692D01*
X44128D01*
X44783Y81036D01*
Y78412D01*
X44128Y77756D01*
X42816D01*
X42160Y78412D01*
X40848Y81036D02*
X40192Y81692D01*
X38880D01*
X38224Y81036D01*
Y80380D01*
X38880Y79724D01*
X39536D01*
X38880D01*
X38224Y79068D01*
Y78412D01*
X38880Y77756D01*
X40192D01*
X40848Y78412D01*
X15093Y85957D02*
X15749Y86613D01*
X17061D01*
X17717Y85957D01*
Y83333D01*
X17061Y82677D01*
X15749D01*
X15093Y83333D01*
X11157Y82677D02*
X13781D01*
X11157Y85301D01*
Y85957D01*
X11813Y86613D01*
X13125D01*
X13781Y85957D01*
X15748Y74311D02*
Y78247D01*
X13780D01*
X13124Y77591D01*
Y76279D01*
X13780Y75623D01*
X15748D01*
X14436D02*
X13124Y74311D01*
X9189D02*
X11812D01*
X9189Y76935D01*
Y77591D01*
X9844Y78247D01*
X11156D01*
X11812Y77591D01*
X7877Y78247D02*
X5253D01*
Y77591D01*
X7877Y74967D01*
Y74311D01*
X66437Y4921D02*
Y8857D01*
X64469D01*
X63813Y8201D01*
Y6889D01*
X64469Y6233D01*
X66437D01*
X65125D02*
X63813Y4921D01*
X59877D02*
X62501D01*
X59877Y7545D01*
Y8201D01*
X60533Y8857D01*
X61845D01*
X62501Y8201D01*
X55942Y8857D02*
X58565D01*
Y6889D01*
X57254Y7545D01*
X56598D01*
X55942Y6889D01*
Y5577D01*
X56598Y4921D01*
X57910D01*
X58565Y5577D01*
X66437Y12795D02*
Y16731D01*
X64469D01*
X63813Y16075D01*
Y14763D01*
X64469Y14107D01*
X66437D01*
X65125D02*
X63813Y12795D01*
X59877D02*
X62501D01*
X59877Y15419D01*
Y16075D01*
X60533Y16731D01*
X61845D01*
X62501Y16075D01*
X55942Y16731D02*
X57254Y16075D01*
X58565Y14763D01*
Y13451D01*
X57910Y12795D01*
X56598D01*
X55942Y13451D01*
Y14107D01*
X56598Y14763D01*
X58565D01*
X89567Y192912D02*
Y188976D01*
X87599D01*
X86943Y189632D01*
Y190288D01*
X87599Y190944D01*
X89567D01*
X87599D01*
X86943Y191600D01*
Y192256D01*
X87599Y192912D01*
X89567D01*
X86943Y183890D02*
X87599Y184546D01*
X88911D01*
X89567Y183890D01*
Y181266D01*
X88911Y180610D01*
X87599D01*
X86943Y181266D01*
Y182578D01*
X88255D01*
X89567Y172736D02*
Y176672D01*
X87599D01*
X86943Y176016D01*
Y174704D01*
X87599Y174048D01*
X89567D01*
X88255D02*
X86943Y172736D01*
X89567Y153050D02*
Y149114D01*
X87599D01*
X86943Y149770D01*
Y150426D01*
X87599Y151082D01*
X89567D01*
X87599D01*
X86943Y151738D01*
Y152394D01*
X87599Y153050D01*
X89567D01*
X86943Y160268D02*
X87599Y160924D01*
X88911D01*
X89567Y160268D01*
Y157644D01*
X88911Y156988D01*
X87599D01*
X86943Y157644D01*
Y158956D01*
X88255D01*
X89567Y165354D02*
Y169290D01*
X87599D01*
X86943Y168634D01*
Y167322D01*
X87599Y166666D01*
X89567D01*
X88255D02*
X86943Y165354D01*
X96949Y124874D02*
Y128809D01*
X94981D01*
X94325Y128153D01*
Y126841D01*
X94981Y126186D01*
X96949D01*
X95637D02*
X94325Y124874D01*
Y136027D02*
X94981Y136683D01*
X96293D01*
X96949Y136027D01*
Y133404D01*
X96293Y132748D01*
X94981D01*
X94325Y133404D01*
Y134715D01*
X95637D01*
X96949Y145050D02*
Y141114D01*
X94981D01*
X94325Y141770D01*
Y142426D01*
X94981Y143082D01*
X96949D01*
X94981D01*
X94325Y143738D01*
Y144394D01*
X94981Y145050D01*
X96949D01*
Y101870D02*
Y105806D01*
X94981D01*
X94325Y105150D01*
Y103838D01*
X94981Y103182D01*
X96949D01*
X95637D02*
X94325Y101870D01*
Y112898D02*
X94981Y113554D01*
X96293D01*
X96949Y112898D01*
Y110274D01*
X96293Y109618D01*
X94981D01*
X94325Y110274D01*
Y111586D01*
X95637D01*
X96949Y121920D02*
Y117984D01*
X94981D01*
X94325Y118640D01*
Y119296D01*
X94981Y119952D01*
X96949D01*
X94981D01*
X94325Y120608D01*
Y121264D01*
X94981Y121920D01*
X96949D01*
X38386Y45641D02*
Y49577D01*
X36418D01*
X35762Y48921D01*
Y47609D01*
X36418Y46953D01*
X38386D01*
X37074D02*
X35762Y45641D01*
Y56795D02*
X36418Y57451D01*
X37730D01*
X38386Y56795D01*
Y54171D01*
X37730Y53515D01*
X36418D01*
X35762Y54171D01*
Y55483D01*
X37074D01*
X38386Y65817D02*
Y61882D01*
X36418D01*
X35762Y62537D01*
Y63193D01*
X36418Y63849D01*
X38386D01*
X36418D01*
X35762Y64505D01*
Y65161D01*
X36418Y65817D01*
X38386D01*
Y22019D02*
Y25955D01*
X36418D01*
X35762Y25299D01*
Y23987D01*
X36418Y23331D01*
X38386D01*
X37074D02*
X35762Y22019D01*
Y33173D02*
X36418Y33829D01*
X37730D01*
X38386Y33173D01*
Y30549D01*
X37730Y29893D01*
X36418D01*
X35762Y30549D01*
Y31861D01*
X37074D01*
X38386Y42195D02*
Y38260D01*
X36418D01*
X35762Y38915D01*
Y39571D01*
X36418Y40227D01*
X38386D01*
X36418D01*
X35762Y40883D01*
Y41539D01*
X36418Y42195D01*
X38386D01*
X99902Y95965D02*
Y99900D01*
X97934D01*
X97278Y99244D01*
Y97932D01*
X97934Y97277D01*
X99902D01*
X98590D02*
X97278Y95965D01*
X81530Y99244D02*
X82186Y99900D01*
X83498D01*
X84154Y99244D01*
Y96621D01*
X83498Y95965D01*
X82186D01*
X81530Y96621D01*
Y97932D01*
X82842D01*
X92028Y99900D02*
Y95965D01*
X90060D01*
X89404Y96621D01*
Y97277D01*
X90060Y97932D01*
X92028D01*
X90060D01*
X89404Y98588D01*
Y99244D01*
X90060Y99900D01*
X92028D01*
X105152Y99244D02*
X105808Y99900D01*
X107120D01*
X107776Y99244D01*
Y96621D01*
X107120Y95965D01*
X105808D01*
X105152Y96621D01*
Y97932D01*
X106464D01*
X115471Y99946D02*
Y96010D01*
X113503D01*
X112847Y96666D01*
Y97322D01*
X113503Y97978D01*
X115471D01*
X113503D01*
X112847Y98634D01*
Y99290D01*
X113503Y99946D01*
X115471D01*
X12632Y22965D02*
X13288Y23621D01*
X14600D01*
X15256Y22965D01*
Y20341D01*
X14600Y19685D01*
X13288D01*
X12632Y20341D01*
Y21653D01*
X13944D01*
X11320Y19685D02*
Y23621D01*
X8696Y19685D01*
Y23621D01*
X7384D02*
Y19685D01*
X5417D01*
X4761Y20341D01*
Y22965D01*
X5417Y23621D01*
X7384D01*
X32480Y22965D02*
X31824Y23621D01*
X30512D01*
X29857Y22965D01*
Y22309D01*
X30512Y21653D01*
X31168D01*
X30512D01*
X29857Y20997D01*
Y20341D01*
X30512Y19685D01*
X31824D01*
X32480Y20341D01*
X28545Y23621D02*
Y20997D01*
X27233Y19685D01*
X25921Y20997D01*
Y23621D01*
X3446Y145177D02*
X7382Y142553D01*
X3446D02*
X7382Y145177D01*
Y141242D02*
X3446D01*
X4758Y139930D01*
X3446Y138618D01*
X7382D01*
X3446Y134682D02*
Y137306D01*
X7382D01*
Y134682D01*
X5414Y137306D02*
Y135994D01*
X4102Y130746D02*
X3446Y131402D01*
Y132714D01*
X4102Y133370D01*
X6726D01*
X7382Y132714D01*
Y131402D01*
X6726Y130746D01*
X5414D01*
Y132058D01*
X7382Y129434D02*
X4758D01*
X3446Y128122D01*
X4758Y126810D01*
X7382D01*
X5414D01*
Y129434D01*
X7382Y125498D02*
Y124187D01*
Y124843D01*
X3446D01*
X4102Y125498D01*
X7382Y119595D02*
Y122219D01*
X4758Y119595D01*
X4102D01*
X3446Y120251D01*
Y121563D01*
X4102Y122219D01*
Y118283D02*
X3446Y117627D01*
Y116315D01*
X4102Y115659D01*
X4758D01*
X5414Y116315D01*
X6070Y115659D01*
X6726D01*
X7382Y116315D01*
Y117627D01*
X6726Y118283D01*
X6070D01*
X5414Y117627D01*
X4758Y118283D01*
X4102D01*
X5414Y117627D02*
Y116315D01*
X7382Y114347D02*
X4758D01*
X3446Y113035D01*
X4758Y111723D01*
X7382D01*
X5414D01*
Y114347D01*
X4102Y110412D02*
X3446Y109756D01*
Y108444D01*
X4102Y107788D01*
X4758D01*
X5414Y108444D01*
Y109100D01*
Y108444D01*
X6070Y107788D01*
X6726D01*
X7382Y108444D01*
Y109756D01*
X6726Y110412D01*
X3446Y106476D02*
X6726D01*
X7382Y105820D01*
Y104508D01*
X6726Y103852D01*
X3446D01*
X157482Y156496D02*
X161417D01*
Y154528D01*
X160761Y153872D01*
X158138D01*
X157482Y154528D01*
Y156496D01*
X161417Y150593D02*
Y151904D01*
X160761Y152560D01*
X159450D01*
X158794Y151904D01*
Y150593D01*
X159450Y149937D01*
X160106D01*
Y152560D01*
X161417Y148625D02*
Y147313D01*
Y147969D01*
X158794D01*
Y148625D01*
X157482Y141409D02*
Y138785D01*
Y140097D01*
X161417D01*
X158794Y136817D02*
Y135505D01*
X159450Y134850D01*
X161417D01*
Y136817D01*
X160761Y137473D01*
X160106Y136817D01*
Y134850D01*
X161417Y133538D02*
X157482D01*
X160106D02*
X158794Y131570D01*
X160106Y133538D02*
X161417Y131570D01*
X158138Y128946D02*
X158794D01*
Y129602D01*
Y128290D01*
Y128946D01*
X160761D01*
X161417Y128290D01*
Y126322D02*
Y125010D01*
Y125666D01*
X157482D01*
Y126322D01*
X158794Y122386D02*
Y121074D01*
X159450Y120419D01*
X161417D01*
Y122386D01*
X160761Y123042D01*
X160106Y122386D01*
Y120419D01*
X158794Y119107D02*
X160761D01*
X161417Y118451D01*
Y116483D01*
X158794D01*
X161417Y115171D02*
Y113203D01*
X160761Y112547D01*
X160106Y113203D01*
Y114515D01*
X159450Y115171D01*
X158794Y114515D01*
Y112547D01*
X161417Y109267D02*
Y110579D01*
X160761Y111235D01*
X159450D01*
X158794Y110579D01*
Y109267D01*
X159450Y108611D01*
X160106D01*
Y111235D01*
X158138Y100740D02*
X157482Y101396D01*
Y102708D01*
X158138Y103364D01*
X158794D01*
X159450Y102708D01*
Y101396D01*
X160106Y100740D01*
X160761D01*
X161417Y101396D01*
Y102708D01*
X160761Y103364D01*
X161417Y99428D02*
X157482D01*
X158794Y98116D01*
X157482Y96804D01*
X161417D01*
X157482Y95492D02*
X161417D01*
Y93524D01*
X160761Y92868D01*
X158138D01*
X157482Y93524D01*
Y95492D01*
X161417Y87621D02*
X157482D01*
Y85653D01*
X158138Y84997D01*
X159450D01*
X160106Y85653D01*
Y87621D01*
Y86309D02*
X161417Y84997D01*
X158138Y81061D02*
X157482Y81717D01*
Y83029D01*
X158138Y83685D01*
X160761D01*
X161417Y83029D01*
Y81717D01*
X160761Y81061D01*
X159450D01*
Y82373D01*
X157482Y79749D02*
X161417D01*
Y77781D01*
X160761Y77125D01*
X160106D01*
X159450Y77781D01*
Y79749D01*
Y77781D01*
X158794Y77125D01*
X158138D01*
X157482Y77781D01*
Y79749D01*
X161417Y71878D02*
Y70566D01*
Y71222D01*
X158794D01*
Y71878D01*
X161417Y68598D02*
X158794D01*
Y67942D01*
X159450Y67286D01*
X161417D01*
X159450D01*
X158794Y66630D01*
X159450Y65974D01*
X161417D01*
X162729Y64662D02*
X158794D01*
Y62694D01*
X159450Y62038D01*
X160761D01*
X161417Y62694D01*
Y64662D01*
Y60071D02*
Y58759D01*
X160761Y58103D01*
X159450D01*
X158794Y58759D01*
Y60071D01*
X159450Y60726D01*
X160761D01*
X161417Y60071D01*
Y56791D02*
X158794D01*
Y54823D01*
X159450Y54167D01*
X161417D01*
X158794Y52199D02*
Y50887D01*
X159450Y50231D01*
X161417D01*
Y52199D01*
X160761Y52855D01*
X160106Y52199D01*
Y50231D01*
X158138Y48263D02*
X158794D01*
Y48919D01*
Y47607D01*
Y48263D01*
X160761D01*
X161417Y47607D01*
Y44984D02*
Y43672D01*
X160761Y43016D01*
X159450D01*
X158794Y43672D01*
Y44984D01*
X159450Y45639D01*
X160761D01*
X161417Y44984D01*
X158794Y41704D02*
X161417D01*
X160106D01*
X159450Y41048D01*
X158794Y40392D01*
Y39736D01*
X169783Y156988D02*
X167160D01*
X165848Y155676D01*
X167160Y154364D01*
X169783D01*
X167816D01*
Y156988D01*
X167160Y153052D02*
X169783Y151741D01*
X167160Y150429D01*
X165848Y143213D02*
Y144525D01*
X166504Y145181D01*
X169128D01*
X169783Y144525D01*
Y143213D01*
X169128Y142557D01*
X166504D01*
X165848Y143213D01*
X167160Y141245D02*
X169128D01*
X169783Y140589D01*
Y138621D01*
X170440D01*
X171095Y139277D01*
Y139933D01*
X169783Y138621D02*
X167160D01*
X169783Y137310D02*
Y135342D01*
X169128Y134686D01*
X168472Y135342D01*
Y136654D01*
X167816Y137310D01*
X167160Y136654D01*
Y134686D01*
X166504Y132718D02*
X167160D01*
Y133374D01*
Y132062D01*
Y132718D01*
X169128D01*
X169783Y132062D01*
Y128126D02*
Y129438D01*
X169128Y130094D01*
X167816D01*
X167160Y129438D01*
Y128126D01*
X167816Y127470D01*
X168472D01*
Y130094D01*
X169783Y126158D02*
Y124846D01*
Y125502D01*
X167160D01*
Y126158D01*
X169783Y122879D02*
X167160D01*
Y120911D01*
X167816Y120255D01*
X169783D01*
X166504Y112383D02*
X165848Y113039D01*
Y114351D01*
X166504Y115007D01*
X167160D01*
X167816Y114351D01*
Y113039D01*
X168472Y112383D01*
X169128D01*
X169783Y113039D01*
Y114351D01*
X169128Y115007D01*
X169783Y111071D02*
X167160D01*
Y110415D01*
X167816Y109759D01*
X169783D01*
X167816D01*
X167160Y109103D01*
X167816Y108448D01*
X169783D01*
Y107135D02*
Y105824D01*
Y106480D01*
X167160D01*
Y107135D01*
X166504Y103200D02*
X167160D01*
Y103856D01*
Y102544D01*
Y103200D01*
X169128D01*
X169783Y102544D01*
X165848Y100576D02*
X169783D01*
X167816D01*
X167160Y99920D01*
Y98608D01*
X167816Y97952D01*
X169783D01*
X178150Y154364D02*
Y156988D01*
X175526Y154364D01*
X174870D01*
X174214Y155020D01*
Y156332D01*
X174870Y156988D01*
Y153052D02*
X174214Y152397D01*
Y151085D01*
X174870Y150429D01*
X177494D01*
X178150Y151085D01*
Y152397D01*
X177494Y153052D01*
X174870D01*
X178150Y149117D02*
Y147805D01*
Y148461D01*
X174214D01*
X174870Y149117D01*
Y145837D02*
X174214Y145181D01*
Y143869D01*
X174870Y143213D01*
X175526D01*
X176182Y143869D01*
Y144525D01*
Y143869D01*
X176838Y143213D01*
X177494D01*
X178150Y143869D01*
Y145181D01*
X177494Y145837D01*
X178150Y137966D02*
X174214D01*
Y135998D01*
X174870Y135342D01*
X176182D01*
X176838Y135998D01*
Y137966D01*
Y136654D02*
X178150Y135342D01*
Y132062D02*
Y133374D01*
X177494Y134030D01*
X176182D01*
X175526Y133374D01*
Y132062D01*
X176182Y131406D01*
X176838D01*
Y134030D01*
X175526Y130094D02*
X178150Y128782D01*
X175526Y127470D01*
X178150Y126158D02*
X177494D01*
Y125502D01*
X178150D01*
Y126158D01*
Y116319D02*
Y118943D01*
X175526Y116319D01*
X174870D01*
X174214Y116975D01*
Y118287D01*
X174870Y118943D01*
X178150Y115007D02*
X177494D01*
Y114351D01*
X178150D01*
Y115007D01*
Y111727D02*
Y110415D01*
Y111071D01*
X174214D01*
X174870Y111727D01*
X174214Y105824D02*
Y108448D01*
X176182D01*
X175526Y107135D01*
Y106480D01*
X176182Y105824D01*
X177494D01*
X178150Y106480D01*
Y107791D01*
X177494Y108448D01*
D31*
X7185Y38583D02*
G03*
X7185Y38583I-492J0D01*
G01*
X12106Y58268D02*
G03*
X12106Y58268I-492J0D01*
G01*
X14173Y97638D02*
G03*
X14173Y97638I-492J0D01*
G01*
D32*
X23917Y103445D02*
G03*
X23917Y103445I-1181J0D01*
G01*
M02*
