%FSLAX25Y25*%
%MOIN*%
G70*
G01*
G75*
G04 Layer_Color=8388736*
%ADD10C,0.01575*%
%ADD11C,0.03150*%
%ADD12O,0.04213X0.07874*%
%ADD13R,0.04213X0.07874*%
%ADD14C,0.03937*%
%ADD15R,0.02992X0.09449*%
G04:AMPARAMS|DCode=16|XSize=94.49mil|YSize=29.92mil|CornerRadius=7.48mil|HoleSize=0mil|Usage=FLASHONLY|Rotation=90.000|XOffset=0mil|YOffset=0mil|HoleType=Round|Shape=RoundedRectangle|*
%AMROUNDEDRECTD16*
21,1,0.09449,0.01496,0,0,90.0*
21,1,0.07953,0.02992,0,0,90.0*
1,1,0.01496,0.00748,0.03976*
1,1,0.01496,0.00748,-0.03976*
1,1,0.01496,-0.00748,-0.03976*
1,1,0.01496,-0.00748,0.03976*
%
%ADD16ROUNDEDRECTD16*%
%ADD17R,0.04331X0.06693*%
%ADD18R,0.06693X0.04331*%
%ADD19R,0.05118X0.05906*%
%ADD20R,0.05906X0.05118*%
%ADD21R,0.02362X0.05118*%
%ADD22O,0.02165X0.06890*%
%ADD23O,0.06890X0.02165*%
%ADD24R,0.15748X0.15748*%
%ADD25R,0.14961X0.15748*%
%ADD26R,0.15748X0.13780*%
%ADD27C,0.01181*%
%ADD28C,0.01969*%
D12*
X209035Y90551D02*
D03*
X219035D02*
D03*
X224035D02*
D03*
X292933Y254921D02*
D03*
X287933D02*
D03*
X277933D02*
D03*
X253327Y258858D02*
D03*
X263327D02*
D03*
X268327D02*
D03*
X243721Y262795D02*
D03*
X238720D02*
D03*
X228720D02*
D03*
X232658Y238189D02*
D03*
X242657D02*
D03*
X247657D02*
D03*
X251594Y213583D02*
D03*
X246595D02*
D03*
X236595D02*
D03*
X240531Y188976D02*
D03*
X250532D02*
D03*
X255532D02*
D03*
X259469Y164370D02*
D03*
X254468D02*
D03*
X244468D02*
D03*
X248406Y139764D02*
D03*
X258405D02*
D03*
X263405D02*
D03*
X267342Y115157D02*
D03*
X262343D02*
D03*
X252343D02*
D03*
X234626Y93504D02*
D03*
X244626D02*
D03*
X249626D02*
D03*
X200413Y103347D02*
D03*
X195413D02*
D03*
X185413D02*
D03*
X181476Y128937D02*
D03*
X191476D02*
D03*
X196476D02*
D03*
X211240Y151575D02*
D03*
X206240D02*
D03*
X196240D02*
D03*
X221831Y152559D02*
D03*
X231831D02*
D03*
X236831D02*
D03*
X229941Y123031D02*
D03*
X224941D02*
D03*
X214941D02*
D03*
D13*
X214035Y90551D02*
D03*
X282933Y254921D02*
D03*
X258327Y258858D02*
D03*
X233720Y262795D02*
D03*
X237657Y238189D02*
D03*
X241595Y213583D02*
D03*
X245532Y188976D02*
D03*
X249468Y164370D02*
D03*
X253405Y139764D02*
D03*
X257343Y115157D02*
D03*
X239626Y93504D02*
D03*
X190413Y103347D02*
D03*
X186476Y128937D02*
D03*
X201240Y151575D02*
D03*
X226831Y152559D02*
D03*
X219941Y123031D02*
D03*
D14*
X179626Y264272D02*
D03*
X172736Y165847D02*
D03*
X201870Y220571D02*
D03*
X201279Y189469D02*
D03*
X141732Y223425D02*
D03*
X173228Y189469D02*
D03*
X147146D02*
D03*
X141732Y241142D02*
D03*
X142717Y146161D02*
D03*
X145177Y103347D02*
D03*
M02*
