%FSLAX25Y25*%
%MOIN*%
G70*
G01*
G75*
G04 Layer_Color=8388736*
%ADD10C,0.03150*%
%ADD11C,0.01575*%
%ADD12O,0.04213X0.07874*%
%ADD13R,0.04213X0.07874*%
%ADD14C,0.03937*%
%ADD15R,0.05118X0.05906*%
%ADD16R,0.15748X0.13780*%
%ADD17R,0.15748X0.15748*%
%ADD18R,0.14961X0.15748*%
G04:AMPARAMS|DCode=19|XSize=94.49mil|YSize=29.92mil|CornerRadius=7.48mil|HoleSize=0mil|Usage=FLASHONLY|Rotation=90.000|XOffset=0mil|YOffset=0mil|HoleType=Round|Shape=RoundedRectangle|*
%AMROUNDEDRECTD19*
21,1,0.09449,0.01496,0,0,90.0*
21,1,0.07953,0.02992,0,0,90.0*
1,1,0.01496,0.00748,0.03976*
1,1,0.01496,0.00748,-0.03976*
1,1,0.01496,-0.00748,-0.03976*
1,1,0.01496,-0.00748,0.03976*
%
%ADD19ROUNDEDRECTD19*%
%ADD20R,0.02992X0.09449*%
%ADD21R,0.04331X0.06693*%
%ADD22R,0.06693X0.04331*%
%ADD23R,0.02362X0.05118*%
%ADD24O,0.06890X0.02165*%
%ADD25O,0.02165X0.06890*%
%ADD26R,0.05906X0.05118*%
%ADD27C,0.01969*%
%ADD28C,0.01181*%
%ADD29R,0.86614X0.19685*%
D12*
X96831Y44291D02*
D03*
X106831D02*
D03*
X111831D02*
D03*
X118720Y73819D02*
D03*
X113721D02*
D03*
X103720D02*
D03*
X78130Y72835D02*
D03*
X88130D02*
D03*
X93130D02*
D03*
X78366Y50197D02*
D03*
X73366D02*
D03*
X63366D02*
D03*
X67303Y24606D02*
D03*
X77303D02*
D03*
X82303D02*
D03*
X131516Y14764D02*
D03*
X126516D02*
D03*
X116516D02*
D03*
X134232Y36417D02*
D03*
X144232D02*
D03*
X149232D02*
D03*
X145295Y61024D02*
D03*
X140295D02*
D03*
X130295D02*
D03*
X126358Y85630D02*
D03*
X136358D02*
D03*
X141358D02*
D03*
X137421Y110236D02*
D03*
X132421D02*
D03*
X122421D02*
D03*
X118484Y134843D02*
D03*
X128484D02*
D03*
X133484D02*
D03*
X129547Y159449D02*
D03*
X124547D02*
D03*
X114547D02*
D03*
X110610Y184055D02*
D03*
X120610D02*
D03*
X125610D02*
D03*
X150217Y180118D02*
D03*
X145217D02*
D03*
X135217D02*
D03*
X159823Y176181D02*
D03*
X169823D02*
D03*
X174823D02*
D03*
X105925Y11811D02*
D03*
X100925D02*
D03*
X90925D02*
D03*
D13*
X101831Y44291D02*
D03*
X108721Y73819D02*
D03*
X83130Y72835D02*
D03*
X68366Y50197D02*
D03*
X72303Y24606D02*
D03*
X121516Y14764D02*
D03*
X139232Y36417D02*
D03*
X135295Y61024D02*
D03*
X131358Y85630D02*
D03*
X127421Y110236D02*
D03*
X123484Y134843D02*
D03*
X119547Y159449D02*
D03*
X115610Y184055D02*
D03*
X140217Y180118D02*
D03*
X164823Y176181D02*
D03*
X95925Y11811D02*
D03*
D14*
X27067Y24606D02*
D03*
X24606Y67421D02*
D03*
X23622Y162402D02*
D03*
X29035Y110728D02*
D03*
X55118D02*
D03*
X23622Y144685D02*
D03*
X83169Y110728D02*
D03*
X83760Y141831D02*
D03*
X54626Y87106D02*
D03*
X61516Y185531D02*
D03*
M02*
