M48
;Layer_Color=9474304
;FILE_FORMAT=2:5
INCH,LZ
;TYPE=PLATED
T1F00S00C0.01378
T2F00S00C0.03543
%
T01
X0145177Y0103347
X0142717Y0146161
X0172736Y0165847
X0173228Y0189469
X0201279
X020187Y0220571
X0179626Y0264272
X0141732Y0241142
Y0223425
X0147146Y0189469
T02
X0185413Y0103347
X0190413
X0195413
X0200413
X0209035Y0090551
X0214035
X0219035
X0224035
X0234626Y0093504
X0239626
X0244626
X0249626
X0252343Y0115157
X0257343
X0262343
X0267342
X0263405Y0139764
X0258405
X0253405
X0248406
X0236831Y0152559
X0231831
X0226831
X0221831
X021124Y0151575
X020624
X020124
X019624
X0196476Y0128937
X0191476
X0186476
X0181476
X0214941Y0123031
X0219941
X0224941
X0229941
X0244468Y016437
X0249468
X0254468
X0259469
X0255532Y0188976
X0250532
X0245532
X0240531
X0241595Y0213583
X0246595
X0251594
X0236595
X0237657Y0238189
X0232658
X0242657
X0247657
X0253327Y0258858
X0258327
X0263327
X0268327
X0277933Y0254921
X0282933
X0287933
X0292933
X0243721Y0262795
X023872
X023372
X022872
M30
