M48
;Layer_Color=9474304
;FILE_FORMAT=2:5
INCH,LZ
;TYPE=PLATED
T1F00S00C0.01378
T2F00S00C0.03543
%
T01
X0027067Y0024606
X0024606Y0067421
X0054626Y0087106
X0055118Y0110728
X0083169
X008376Y0141831
X0061516Y0185531
X0023622Y0162402
Y0144685
X0029035Y0110728
T02
X0067303Y0024606
X0072303
X0077303
X0082303
X0090925Y0011811
X0095925
X0100925
X0105925
X0116516Y0014764
X0121516
X0126516
X0131516
X0134232Y0036417
X0139232
X0144232
X0149232
X0145295Y0061024
X0140295
X0135295
X0130295
X011872Y0073819
X0113721
X0108721
X010372
X009313Y0072835
X008813
X008313
X007813
X0078366Y0050197
X0073366
X0068366
X0063366
X0096831Y0044291
X0101831
X0106831
X0111831
X0126358Y008563
X0131358
X0136358
X0141358
X0137421Y0110236
X0132421
X0127421
X0122421
X0123484Y0134843
X0118484
X0128484
X0133484
X0129547Y0159449
X0124547
X0119547
X0114547
X011561Y0184055
X011061
X012061
X012561
X0135217Y0180118
X0140217
X0145217
X0150217
X0159823Y0176181
X0164823
X0169823
X0174823
M30
